<svg xmlns="http://www.w3.org/2000/svg" xmlns:xlink="http://www.w3.org/1999/xlink" width="1238" height="540" viewBox="0 0 1238 540">
  <defs>
    <clipPath id="clip-path">
      <path id="Path_188164" data-name="Path 188164" d="M17.928,0H1220.072c9.9,0,17.928,8.483,17.928,18.947V521.053c0,10.464-8.026,18.947-17.928,18.947H17.928C8.026,540,0,531.517,0,521.053V18.947C0,8.483,8.026,0,17.928,0Z" transform="translate(181 1454)" fill="#e6fffb"/>
    </clipPath>
    <filter id="Path_188161" x="476.287" y="-273.18" width="1043.996" height="866.769" filterUnits="userSpaceOnUse">
      <feOffset dy="12" input="SourceAlpha"/>
      <feGaussianBlur stdDeviation="5" result="blur"/>
      <feFlood flood-color="#cc8b00" flood-opacity="0.071"/>
      <feComposite operator="in" in2="blur"/>
      <feComposite in="SourceGraphic"/>
    </filter>
    <filter id="Path_188162" x="744.23" y="-556.211" width="1043.996" height="866.77" filterUnits="userSpaceOnUse">
      <feOffset dy="12" input="SourceAlpha"/>
      <feGaussianBlur stdDeviation="5" result="blur-2"/>
      <feFlood flood-color="#cc8b00" flood-opacity="0.071"/>
      <feComposite operator="in" in2="blur-2"/>
      <feComposite in="SourceGraphic"/>
    </filter>
    <filter id="Path_188163" x="-391.687" y="312.545" width="994.186" height="803.974" filterUnits="userSpaceOnUse">
      <feOffset dy="-12" input="SourceAlpha"/>
      <feGaussianBlur stdDeviation="5" result="blur-3"/>
      <feFlood flood-color="#cc8b00" flood-opacity="0.051"/>
      <feComposite operator="in" in2="blur-3"/>
      <feComposite in="SourceGraphic"/>
    </filter>
  </defs>
  <g id="bg-slider2" transform="translate(9840 9784)">
    <path id="Path_188160" data-name="Path 188160" d="M17.928,0H1220.072c9.9,0,17.928,8.483,17.928,18.947V521.053c0,10.464-8.026,18.947-17.928,18.947H17.928C8.026,540,0,531.517,0,521.053V18.947C0,8.483,8.026,0,17.928,0Z" transform="translate(-9840 -9784)" fill="#fff5e0"/>
    <g id="Mask_Group_104" data-name="Mask Group 104" transform="translate(-10021 -11238)" clip-path="url(#clip-path)">
      <g transform="matrix(1, 0, 0, 1, 181, 1454)" filter="url(#Path_188161)">
        <path id="Path_188161-2" data-name="Path 188161" d="M1.149,199.355C4.735,242.889,31,283.418,66.017,307.955c32.5,22.771,72.1,33.695,101.63,60.6,52.4,47.738,44.173,119.356,65.433,182.017C254.359,613.282,313.355,659.23,377.129,658.4c47.008-.611,91.393-24.585,138.4-25.118,31.974-.363,64.082,10.569,89.954,30.625,32.633,25.3,55.621,59.365,95.659,72.857,44,14.826,93.669,8.7,133.452-15.015,54.136-32.274,89.7-92.873,102.455-157.08,12.05-60.648,4.054-128.191-32.144-177.651-49.04-67.017-142.452-94.009-174.1-171.628-18.139-44.487-11.358-96.8-30.475-140.838C680.208,28.193,630.4-2.073,582.413,2.9c-51.259,5.315-91.926,44.822-136.125,72.251a316.088,316.088,0,0,1-203.033,45.256c-52.849-6.328-104.528-36.753-158.3-33.964C37.243,88.92,1.9,137.293.762,186.416a122.546,122.546,0,0,0,.386,12.939" transform="matrix(0.99, 0.1, -0.1, 0.99, 568.41, -272.61)" fill="#fff5e0"/>
      </g>
      <g transform="matrix(1, 0, 0, 1, 181, 1454)" filter="url(#Path_188162)">
        <path id="Path_188162-2" data-name="Path 188162" d="M-1.709,542.445c3.586-43.534,29.856-84.063,64.869-108.6,32.5-22.771,72.1-33.695,101.63-60.6,52.4-47.738,44.173-119.356,65.433-182.018C251.5,128.518,310.5,82.569,374.272,83.4c47.008.611,91.393,24.585,138.4,25.118,31.974.363,64.082-10.569,89.954-30.625,32.633-25.3,55.621-59.366,95.659-72.857,44-14.826,93.669-8.7,133.452,15.015,54.136,32.274,89.7,92.873,102.455,157.08,12.05,60.648,4.054,128.191-32.144,177.651C853.009,421.8,759.6,448.791,727.95,526.41c-18.139,44.487-11.358,96.8-30.475,140.839-20.124,46.358-69.935,76.625-117.919,71.647-51.259-5.315-91.926-44.822-136.125-72.251A316.088,316.088,0,0,0,240.4,621.389c-52.849,6.328-104.528,36.754-158.3,33.964C34.385,652.88-.957,604.507-2.1,555.384a122.544,122.544,0,0,1,.386-12.939" transform="matrix(-0.99, 0.1, -0.1, -0.99, 1770.8, 182.39)" fill="#fff5e0"/>
      </g>
      <g transform="matrix(1, 0, 0, 1, 181, 1454)" filter="url(#Path_188163)">
        <path id="Path_188163-2" data-name="Path 188163" d="M1.062,541.246c3.282-43.53,29.258-83.889,64.084-108.182,32.329-22.546,71.837-33.186,101.161-59.888,52.042-47.38,43.324-119.1,64.139-181.635,20.833-62.588,79.482-108.13,143.232-106.833,46.99.955,91.521,25.266,138.511,26.142a143.36,143.36,0,0,0,89.7-29.983C634.329,55.793,657.07,21.876,697,8.669c43.877-14.512,93.564-8.018,133.493,16,54.334,32.686,90.3,93.577,103.5,157.911,12.465,60.768,4.942,128.288-30.9,177.51-48.551,66.694-141.732,93.018-172.825,170.446-17.821,44.377-10.68,96.763-29.482,140.69-19.793,46.235-69.369,76.154-117.366,70.823-51.271-5.692-92.194-45.517-136.562-73.284C386.155,630.778,313.687,614.107,243.6,622c-52.78,5.945-104.223,36.009-157.986,32.825C37.906,652,2.245,603.346.766,554.189a122.589,122.589,0,0,1,.3-12.943" transform="matrix(-1, -0.03, 0.03, -1, 562.29, 1114.54)" fill="#fff5e0"/>
      </g>
    </g>
  </g>
</svg>
