<svg xmlns="http://www.w3.org/2000/svg" width="35.74" height="30" viewBox="0 0 35.74 30">
  <path id="Path_163344" data-name="Path 163344" d="M339.166,252.366V247.41a.809.809,0,0,0-.809-.809h-.613a.809.809,0,0,0-.808.809v2.72c0,.446-.256.552-.571.236l-4.388-4.4a.8.8,0,0,0-1.141,0L313.75,263.124c-.315.317-.209.576.238.579l4.342.027a.812.812,0,0,1,.806.814l-.04,10.376a.8.8,0,0,0,.806.809h7.306a.809.809,0,0,0,.809-.809v-9.145a2.049,2.049,0,0,1,.491-1.438,4.908,4.908,0,0,1,2.887-.788,4.712,4.712,0,0,1,2.83.776,2.082,2.082,0,0,1,.481,1.445v9.15a.809.809,0,0,0,.809.809h7.3a.811.811,0,0,0,.811-.809l.04-10.407a.806.806,0,0,1,.811-.8l4.415.026c.447,0,.553-.252.238-.568l-9.391-9.419A2.245,2.245,0,0,1,339.166,252.366Zm2.277,9.9L341.4,272.69a.812.812,0,0,1-.811.809h-2.846a.809.809,0,0,1-.808-.809v-7.07c0-.446-.007-.864-.014-.932a3.213,3.213,0,0,0-.287-.883c-.774-1.533-2.732-2.486-5.24-2.486-2.11,0-4.419.774-5.3,2.482a4.075,4.075,0,0,0-.28,1.566l-.025,7.323a.812.812,0,0,1-.811.809H322.14a.806.806,0,0,1-.806-.809l.04-10.36a.812.812,0,0,0-.806-.814l-1.247-.008c-.446,0-.553-.262-.238-.578l11.754-11.8a.8.8,0,0,1,1.141,0L343.723,260.9c.315.316.209.571-.238.568l-1.231-.007A.807.807,0,0,0,341.443,262.269Z" transform="translate(-313.569 -245.729)" fill="#95e17a"/>
</svg>
