<svg xmlns="http://www.w3.org/2000/svg" width="80" height="80" viewBox="0 0 80 80">
  <g id="t1-ic1" transform="translate(8384 6771)">
    <path id="Path_187689" data-name="Path 187689" d="M-8357.552-6413.5l7.032,6.953-14.532,14.219s-3.28,3.047-6.484.313-.547-7.109-.547-7.109Z" transform="translate(-9.183 -301.641)" fill="#ffd341"/>
    <ellipse id="Ellipse_5110" data-name="Ellipse 5110" cx="30.829" cy="31.678" rx="30.829" ry="31.678" transform="translate(-8367.596 -6769.628)" fill="#95e17a"/>
    <path id="Ellipse_5110_-_Outline" data-name="Ellipse 5110 - Outline" d="M30.829,1a28.935,28.935,0,0,0-11.6,2.407A29.7,29.7,0,0,0,9.746,9.976a30.639,30.639,0,0,0-6.4,9.752,31.589,31.589,0,0,0,0,23.9,30.639,30.639,0,0,0,6.4,9.752,29.7,29.7,0,0,0,9.481,6.569,29.168,29.168,0,0,0,23.2,0,29.7,29.7,0,0,0,9.481-6.569,30.639,30.639,0,0,0,6.4-9.752,31.589,31.589,0,0,0,0-23.9,30.639,30.639,0,0,0-6.4-9.752,29.7,29.7,0,0,0-9.481-6.569A28.935,28.935,0,0,0,30.829,1m0-1C47.856,0,61.658,14.183,61.658,31.678s-13.8,31.678-30.829,31.678S0,49.173,0,31.678,13.8,0,30.829,0Z" transform="translate(-8367.596 -6769.628)" fill="#707070"/>
    <g id="_7ffff5ff" data-name="#7ffff5ff" transform="translate(-8356.816 -6768.031)">
      <path id="Path_187684" data-name="Path 187684" d="M208.573,12a29.6,29.6,0,0,1,18.769,9.206c4.652,4.887,7.069,12.825,7.531,19.556a29.394,29.394,0,0,1-3.052,15.422,31.361,31.361,0,0,1-1.884,3.273,30.282,30.282,0,0,1-2.7,3.4,30.981,30.981,0,0,1-3.1,2.992,32.558,32.558,0,0,1-3.1,2.208c-3.892,2.478-10.422,3.984-15.009,4.416a31.231,31.231,0,0,1-16.5-45.778c3.742-6.17,12.191-12.4,19.039-14.7m-6.184,13.847a4.715,4.715,0,0,0-3.806,4.583c-.019,4.064,0,8.128-.008,12.194a5.112,5.112,0,0,0,.586,2.547,4.671,4.671,0,0,0,7.708.734,4.825,4.825,0,0,0,1.078-3.117c.008-3.959,0-7.919,0-11.88a5.678,5.678,0,0,0-.338-2.167,4.694,4.694,0,0,0-5.225-2.894m-.131,25.027a4.673,4.673,0,1,0,3.813.831A4.683,4.683,0,0,0,202.257,50.873Z" transform="translate(-184.977 -12)" fill="#b0ff94"/>
    </g>
    <g id="_ffce34ff" data-name="#ffce34ff" transform="translate(-8364.336 -6717.302)">
      <path id="Path_187687" data-name="Path 187687" d="M125.85,345.89q1.106-1.113,2.216-2.22c.706.764,1.392,1.545,2.106,2.3.758.719,1.544,1.408,2.311,2.119q-1.1,1.109-2.216,2.216c-.767-.709-1.548-1.406-2.306-2.125C127.247,347.428,126.555,346.653,125.85,345.89Z" transform="translate(-125.85 -343.67)" fill="#fe7f05"/>
    </g>
    <g id="_3c9fd7ff" data-name="#3c9fd7ff" transform="translate(-8379.189 -6710.558)" opacity="0.7">
      <path id="Path_187688" data-name="Path 187688" d="M33.093,399.128c4.086-4.1,8.188-8.173,12.264-12.277l.442-.022-.177.083c.764.648,1.481,1.35,2.22,2.025q-6.469,6.471-12.937,12.944a4.317,4.317,0,0,1-1.6,1.183,3.292,3.292,0,0,1-2.513-.136,5.722,5.722,0,0,1,.516-1.689A8.787,8.787,0,0,1,33.093,399.128Z" transform="translate(-30.79 -386.83)" fill="#fea521"/>
    </g>
    <rect id="Rectangle_38429" data-name="Rectangle 38429" width="5.091" height="18.101" rx="2.546" transform="translate(-8339.312 -6753.224)" fill="#ffbd31"/>
    <circle id="Ellipse_5111" data-name="Ellipse 5111" cx="3.111" cy="3.111" r="3.111" transform="translate(-8339.878 -6728.9)" fill="#ffbd31"/>
    <g id="_000000ff" data-name="#000000ff" transform="translate(-8384 -6771)">
      <path id="Path_187679" data-name="Path 187679" d="M46.644,0h1.064A32.337,32.337,0,0,1,60.775,2.98a32.742,32.742,0,0,1,11.166,8.355,33.518,33.518,0,0,1,5.839,9.625A33.234,33.234,0,0,1,80,32.278v1.066a32.168,32.168,0,0,1-3.387,13.894A32.716,32.716,0,0,1,33.7,62.7,35.062,35.062,0,0,1,28.839,60q-8.813,8.81-17.622,17.625a7.521,7.521,0,0,1-2.755,1.95A7.618,7.618,0,0,1,6.417,80H6.177A6.353,6.353,0,0,1,1.4,77.669,6.426,6.426,0,0,1,0,73.92v-.238a6.49,6.49,0,0,1,1.912-4.425q9.03-9.063,18.088-18.1a32.8,32.8,0,0,1-5.066-12.413,32.421,32.421,0,0,1,2.975-20.672A32.869,32.869,0,0,1,33.6,2.981,32.314,32.314,0,0,1,46.644,0M27.6,10.564A29.643,29.643,0,0,0,62.936,57.933a32.559,32.559,0,0,0,3.1-2.208,30.98,30.98,0,0,0,3.1-2.992,30.284,30.284,0,0,0,2.7-3.4,31.367,31.367,0,0,0,1.884-3.273A29.642,29.642,0,0,0,27.6,10.564M19.664,55.919c.7.762,1.4,1.537,2.111,2.292.758.719,1.539,1.416,2.306,2.125Q25.192,59.23,26.3,58.12c-.767-.711-1.553-1.4-2.311-2.119-.714-.758-1.4-1.539-2.106-2.3q-1.111,1.106-2.216,2.22M4.12,71.464a3.151,3.151,0,0,0,.691,5.077,3.292,3.292,0,0,0,2.512.136,4.316,4.316,0,0,0,1.6-1.183Q15.393,69.02,21.864,62.55c-.739-.675-1.456-1.377-2.22-2.025l.177-.083-.442.022.088-.189c-.709-.68-1.341-1.434-2.019-2.144Q10.781,64.8,4.12,71.464Z"/>
      <path id="Path_187680" data-name="Path 187680" d="M174.2,57.206a1.553,1.553,0,0,1,1.844,1.8c-.117.728-.809,1.109-1.375,1.467a24.613,24.613,0,0,0-5.725,4.9,1.571,1.571,0,0,1-2.667-.547,2.045,2.045,0,0,1,.839-2.073,26.98,26.98,0,0,1,5.086-4.416A10.209,10.209,0,0,1,174.2,57.206Z" transform="translate(-140.227 -48.23)"/>
      <path id="Path_187681" data-name="Path 187681" d="M275.807,100.137a4.694,4.694,0,0,1,5.225,2.894,5.678,5.678,0,0,1,.337,2.167c-.006,3.961,0,7.92,0,11.88a4.825,4.825,0,0,1-1.078,3.117,4.671,4.671,0,0,1-7.708-.734,5.112,5.112,0,0,1-.586-2.547c.006-4.066-.011-8.13.008-12.194a4.715,4.715,0,0,1,3.806-4.583m.741,3.053a1.6,1.6,0,0,0-1.425,1.691c-.013,3.958,0,7.917-.008,11.875a2.161,2.161,0,0,0,.339,1.406,1.547,1.547,0,0,0,2.061.363,1.646,1.646,0,0,0,.723-1.445c.012-3.959,0-7.917.008-11.877a2.326,2.326,0,0,0-.267-1.306A1.544,1.544,0,0,0,276.548,103.19Z" transform="translate(-229.493 -84.415)"/>
      <path id="Path_187682" data-name="Path 187682" d="M150.23,117.47a1.554,1.554,0,1,1-.38,2.65A1.577,1.577,0,0,1,150.23,117.47Z" transform="translate(-125.96 -99.002)"/>
      <path id="Path_187683" data-name="Path 187683" d="M275.779,260.2a4.673,4.673,0,1,1-3.253,2.644,4.689,4.689,0,0,1,3.253-2.644m.873,3.027a1.543,1.543,0,1,0,1.556,2.133A1.553,1.553,0,0,0,276.652,263.23Z" transform="translate(-229.596 -219.456)"/>
    </g>
  </g>
</svg>
