<svg xmlns="http://www.w3.org/2000/svg" width="509" height="337" viewBox="0 0 509 337">
  <g id="t1-t6" transform="translate(7059 6494)">
    <rect id="Rectangle_38455" data-name="Rectangle 38455" width="509" height="337" transform="translate(-7059 -6494)" fill="#fff"/>
    <g id="Group_118659" data-name="Group 118659" transform="translate(-1 -456)">
      <rect id="Rectangle_38526" data-name="Rectangle 38526" width="80" height="303" rx="8" transform="translate(-7041 -6010)" fill="#f0c4ff"/>
      <path id="Rectangle_38526_-_Outline" data-name="Rectangle 38526 - Outline" d="M8,2A6.007,6.007,0,0,0,2,8V295a6.007,6.007,0,0,0,6,6H72a6.007,6.007,0,0,0,6-6V8a6.007,6.007,0,0,0-6-6H8M8,0H72a8,8,0,0,1,8,8V295a8,8,0,0,1-8,8H8a8,8,0,0,1-8-8V8A8,8,0,0,1,8,0Z" transform="translate(-7041 -6010)" fill="#a042bf"/>
      <rect id="Rectangle_38527" data-name="Rectangle 38527" width="57" height="303" rx="8" transform="translate(-6904 -6010)" fill="#bdf5a9"/>
      <path id="Rectangle_38527_-_Outline" data-name="Rectangle 38527 - Outline" d="M8,2A6.007,6.007,0,0,0,2,8V295a6.007,6.007,0,0,0,6,6H49a6.007,6.007,0,0,0,6-6V8a6.007,6.007,0,0,0-6-6H8M8,0H49a8,8,0,0,1,8,8V295a8,8,0,0,1-8,8H8a8,8,0,0,1-8-8V8A8,8,0,0,1,8,0Z" transform="translate(-6904 -6010)" fill="#95e17a"/>
      <rect id="Rectangle_38528" data-name="Rectangle 38528" width="51" height="80" rx="8" transform="translate(-6806 -6010)" fill="#dee4f0"/>
      <path id="Rectangle_38528_-_Outline" data-name="Rectangle 38528 - Outline" d="M8,2A6.007,6.007,0,0,0,2,8V72a6.007,6.007,0,0,0,6,6H43a6.007,6.007,0,0,0,6-6V8a6.007,6.007,0,0,0-6-6H8M8,0H43a8,8,0,0,1,8,8V72a8,8,0,0,1-8,8H8a8,8,0,0,1-8-8V8A8,8,0,0,1,8,0Z" transform="translate(-6806 -6010)" fill="#b0c0d2"/>
      <rect id="Rectangle_38549" data-name="Rectangle 38549" width="51" height="80" rx="8" transform="translate(-6806 -5892)" fill="#dee4f0"/>
      <path id="Rectangle_38549_-_Outline" data-name="Rectangle 38549 - Outline" d="M8,2A6.007,6.007,0,0,0,2,8V72a6.007,6.007,0,0,0,6,6H43a6.007,6.007,0,0,0,6-6V8a6.007,6.007,0,0,0-6-6H8M8,0H43a8,8,0,0,1,8,8V72a8,8,0,0,1-8,8H8a8,8,0,0,1-8-8V8A8,8,0,0,1,8,0Z" transform="translate(-6806 -5892)" fill="#b0c0d2"/>
      <rect id="Rectangle_38560" data-name="Rectangle 38560" width="51" height="80" rx="8" transform="translate(-6806 -5787)" fill="#dee4f0"/>
      <path id="Rectangle_38560_-_Outline" data-name="Rectangle 38560 - Outline" d="M8,2A6.007,6.007,0,0,0,2,8V72a6.007,6.007,0,0,0,6,6H43a6.007,6.007,0,0,0,6-6V8a6.007,6.007,0,0,0-6-6H8M8,0H43a8,8,0,0,1,8,8V72a8,8,0,0,1-8,8H8a8,8,0,0,1-8-8V8A8,8,0,0,1,8,0Z" transform="translate(-6806 -5787)" fill="#b0c0d2"/>
      <rect id="Rectangle_38531" data-name="Rectangle 38531" width="51" height="80" rx="8" transform="translate(-6707 -6031)" fill="#ffe285"/>
      <path id="Rectangle_38531_-_Outline" data-name="Rectangle 38531 - Outline" d="M8,2A6.007,6.007,0,0,0,2,8V72a6.007,6.007,0,0,0,6,6H43a6.007,6.007,0,0,0,6-6V8a6.007,6.007,0,0,0-6-6H8M8,0H43a8,8,0,0,1,8,8V72a8,8,0,0,1-8,8H8a8,8,0,0,1-8-8V8A8,8,0,0,1,8,0Z" transform="translate(-6707 -6031)" fill="#fe7f05"/>
      <rect id="Rectangle_38544" data-name="Rectangle 38544" width="51" height="80" rx="8" transform="translate(-6617 -5913)" fill="#ffe285"/>
      <path id="Rectangle_38544_-_Outline" data-name="Rectangle 38544 - Outline" d="M8,2A6.007,6.007,0,0,0,2,8V72a6.007,6.007,0,0,0,6,6H43a6.007,6.007,0,0,0,6-6V8a6.007,6.007,0,0,0-6-6H8M8,0H43a8,8,0,0,1,8,8V72a8,8,0,0,1-8,8H8a8,8,0,0,1-8-8V8A8,8,0,0,1,8,0Z" transform="translate(-6617 -5913)" fill="#fe7f05"/>
      <rect id="Rectangle_38553" data-name="Rectangle 38553" width="51" height="80" rx="8" transform="translate(-6633 -5787)" fill="#ffe285"/>
      <path id="Rectangle_38553_-_Outline" data-name="Rectangle 38553 - Outline" d="M8,2A6.007,6.007,0,0,0,2,8V72a6.007,6.007,0,0,0,6,6H43a6.007,6.007,0,0,0,6-6V8a6.007,6.007,0,0,0-6-6H8M8,0H43a8,8,0,0,1,8,8V72a8,8,0,0,1-8,8H8a8,8,0,0,1-8-8V8A8,8,0,0,1,8,0Z" transform="translate(-6633 -5787)" fill="#fe7f05"/>
      <path id="Path_187977" data-name="Path 187977" d="M5.914-2.969A1.525,1.525,0,0,0,5.57-4.02a3.5,3.5,0,0,0-1.211-.762,8.005,8.005,0,0,1-2.66-1.4,2.784,2.784,0,0,1-.887-2.2A2.852,2.852,0,0,1,1.844-10.66a3.917,3.917,0,0,1,2.633-.879,3.643,3.643,0,0,1,2.641.98A3.193,3.193,0,0,1,8.1-8.086l-.016.047H5.93A1.954,1.954,0,0,0,5.539-9.3a1.335,1.335,0,0,0-1.1-.484,1.338,1.338,0,0,0-1.035.4,1.435,1.435,0,0,0-.371,1.012,1.177,1.177,0,0,0,.414.926,5.836,5.836,0,0,0,1.438.809A6.05,6.05,0,0,1,7.316-5.254a3.117,3.117,0,0,1,.816,2.27A2.871,2.871,0,0,1,7.148-.672,3.907,3.907,0,0,1,4.531.164,4.383,4.383,0,0,1,1.715-.785,3.181,3.181,0,0,1,.563-3.508l.016-.047H2.742a2.134,2.134,0,0,0,.445,1.516,1.788,1.788,0,0,0,1.344.461,1.339,1.339,0,0,0,1.043-.375A1.455,1.455,0,0,0,5.914-2.969ZM11.7,0H9.484V-8.453H11.7Zm0-10.492H9.484v-1.7H11.7ZM16.93-2.211a.821.821,0,0,0-.281-.621,4.734,4.734,0,0,0-1.078-.645,5.685,5.685,0,0,1-1.91-1.078,2.052,2.052,0,0,1-.637-1.562,2.282,2.282,0,0,1,.816-1.762A3.118,3.118,0,0,1,16-8.609a3.232,3.232,0,0,1,2.242.75,2.365,2.365,0,0,1,.8,1.914l-.023.047H16.883a1.447,1.447,0,0,0-.219-.844.764.764,0,0,0-.672-.312.843.843,0,0,0-.609.242.786.786,0,0,0-.25.586.785.785,0,0,0,.25.605,5.036,5.036,0,0,0,1.086.629,5.265,5.265,0,0,1,1.969,1.074,2.166,2.166,0,0,1,.641,1.629,2.161,2.161,0,0,1-.859,1.766,3.506,3.506,0,0,1-2.258.688,3.125,3.125,0,0,1-2.312-.852,2.515,2.515,0,0,1-.812-1.922l.016-.047h2.031a1.379,1.379,0,0,0,.313.969,1.109,1.109,0,0,0,.82.3.961.961,0,0,0,.68-.219A.783.783,0,0,0,16.93-2.211Zm5.9-8.344v2.1H24v1.609H22.828V-2.6a1.381,1.381,0,0,0,.148.738.464.464,0,0,0,.406.223,2.555,2.555,0,0,0,.344-.02,2.514,2.514,0,0,0,.313-.066l.172,1.688a4.425,4.425,0,0,1-.672.156,5.057,5.057,0,0,1-.727.047A2.038,2.038,0,0,1,21.176-.5a3.186,3.186,0,0,1-.566-2.1v-4.25h-1V-8.453h1v-2.1ZM28.539.164A3.228,3.228,0,0,1,26.008-.883a3.81,3.81,0,0,1-.937-2.641V-4.711a4.363,4.363,0,0,1,.871-2.8,2.91,2.91,0,0,1,2.41-1.094,2.8,2.8,0,0,1,2.3.992,4.143,4.143,0,0,1,.813,2.7v1.359h-4.18v.031a2.336,2.336,0,0,0,.379,1.375,1.306,1.306,0,0,0,1.145.539A3.055,3.055,0,0,0,29.82-1.75a5.343,5.343,0,0,0,.93-.469L31.313-.8a3.351,3.351,0,0,1-1.168.7A4.546,4.546,0,0,1,28.539.164Zm-.187-7a.824.824,0,0,0-.781.487,3.156,3.156,0,0,0-.281,1.31h1.992v-.314a2.254,2.254,0,0,0-.219-1.095A.754.754,0,0,0,28.352-6.836Zm6.3-1.617.086,1.078a2.518,2.518,0,0,1,.844-.914,2.135,2.135,0,0,1,1.164-.32,1.874,1.874,0,0,1,1.117.34,2.093,2.093,0,0,1,.727,1.035,2.648,2.648,0,0,1,.844-1.016,2.051,2.051,0,0,1,1.2-.359,1.914,1.914,0,0,1,1.652.863A4.624,4.624,0,0,1,42.9-5.109V0H40.672V-5.115a3,3,0,0,0-.211-1.349.7.7,0,0,0-.656-.372.925.925,0,0,0-.57.188,1.429,1.429,0,0,0-.414.516q.008.149.016.293t.008.3V0H36.633V-5.115a2.95,2.95,0,0,0-.215-1.345.717.717,0,0,0-.668-.375.985.985,0,0,0-.543.153,1.342,1.342,0,0,0-.41.426V0H32.586V-8.453ZM48.469,0A3.794,3.794,0,0,1,48.3-.461a3.763,3.763,0,0,1-.113-.508,2.642,2.642,0,0,1-.762.824,1.8,1.8,0,0,1-1.043.309,2.161,2.161,0,0,1-1.676-.687,2.615,2.615,0,0,1-.629-1.836,2.406,2.406,0,0,1,.8-1.93,3.567,3.567,0,0,1,2.379-.687h.836v-.687a1.7,1.7,0,0,0-.223-.949.751.751,0,0,0-.668-.332.643.643,0,0,0-.562.266,1.335,1.335,0,0,0-.187.773L44.3-5.914l-.023-.047A2.317,2.317,0,0,1,45.1-7.836a3.232,3.232,0,0,1,2.254-.773,3.016,3.016,0,0,1,2.145.77,2.851,2.851,0,0,1,.824,2.191v3.422a7.4,7.4,0,0,0,.086,1.164A6.342,6.342,0,0,0,50.672,0ZM47.023-1.508a1.143,1.143,0,0,0,.621-.18,1.334,1.334,0,0,0,.449-.461V-3.7h-.836a.808.808,0,0,0-.734.352,1.615,1.615,0,0,0-.227.891,1.132,1.132,0,0,0,.2.688A.625.625,0,0,0,47.023-1.508ZM.453,17.258a4.2,4.2,0,0,1,.9-2.785,3.109,3.109,0,0,1,2.527-1.082,3.121,3.121,0,0,1,2.531,1.082,4.191,4.191,0,0,1,.906,2.785V18.3a4.168,4.168,0,0,1-.906,2.789,3.127,3.127,0,0,1-2.523,1.07,3.134,3.134,0,0,1-2.535-1.07,4.18,4.18,0,0,1-.9-2.789ZM2.664,18.3a3.529,3.529,0,0,0,.273,1.534.974.974,0,0,0,.953.556.962.962,0,0,0,.934-.559A3.49,3.49,0,0,0,5.1,18.3V17.253a3.5,3.5,0,0,0-.277-1.522.967.967,0,0,0-.941-.567.966.966,0,0,0-.941.571,3.5,3.5,0,0,0-.277,1.518Zm12.453.12a4.571,4.571,0,0,1-.734,2.715,2.382,2.382,0,0,1-2.055,1.027,1.978,1.978,0,0,1-.918-.207,2,2,0,0,1-.7-.613V25.25H8.492v-11.7h2.055l.078.836a2.293,2.293,0,0,1,.723-.734,1.8,1.8,0,0,1,.965-.258,2.35,2.35,0,0,1,2.07,1.1,5.122,5.122,0,0,1,.734,2.895ZM12.9,17.378a3.862,3.862,0,0,0-.281-1.608.926.926,0,0,0-.883-.606,1.054,1.054,0,0,0-.609.176,1.245,1.245,0,0,0-.414.5v3.99a1.051,1.051,0,0,0,.41.423,1.265,1.265,0,0,0,.621.141.923.923,0,0,0,.887-.524,3.206,3.206,0,0,0,.27-1.447Zm6.656,4.786a3.228,3.228,0,0,1-2.531-1.047,3.81,3.81,0,0,1-.937-2.641V17.289a4.363,4.363,0,0,1,.871-2.8,2.91,2.91,0,0,1,2.41-1.094,2.8,2.8,0,0,1,2.3.992,4.143,4.143,0,0,1,.813,2.7v1.359H18.3v.031a2.336,2.336,0,0,0,.379,1.375,1.306,1.306,0,0,0,1.145.539,3.055,3.055,0,0,0,1.016-.141,5.343,5.343,0,0,0,.93-.469l.563,1.414a3.351,3.351,0,0,1-1.168.7A4.546,4.546,0,0,1,19.555,22.164Zm-.187-7a.824.824,0,0,0-.781.487,3.156,3.156,0,0,0-.281,1.31H20.3v-.314a2.254,2.254,0,0,0-.219-1.095A.754.754,0,0,0,19.367,15.164Zm8.219.406-.836-.023a.947.947,0,0,0-.582.172,1.092,1.092,0,0,0-.355.484V22H23.594V13.547h2.07l.086,1.133.039.016a2.305,2.305,0,0,1,.566-.957,1.188,1.188,0,0,1,.848-.348,1.974,1.974,0,0,1,.316.027,2.149,2.149,0,0,1,.293.066ZM32.828,22a3.892,3.892,0,0,1-.281-.969,2.642,2.642,0,0,1-.762.824,1.8,1.8,0,0,1-1.043.309,2.161,2.161,0,0,1-1.676-.687,2.615,2.615,0,0,1-.629-1.836,2.406,2.406,0,0,1,.8-1.93,3.567,3.567,0,0,1,2.379-.687h.836v-.687a1.7,1.7,0,0,0-.223-.949.751.751,0,0,0-.668-.332A.643.643,0,0,0,31,15.32a1.335,1.335,0,0,0-.187.773l-2.148-.008-.023-.047a2.317,2.317,0,0,1,.816-1.875,3.232,3.232,0,0,1,2.254-.773,3.016,3.016,0,0,1,2.145.77,2.851,2.851,0,0,1,.824,2.191v3.422a7.4,7.4,0,0,0,.086,1.164A6.342,6.342,0,0,0,35.031,22Zm-1.445-1.508a1.143,1.143,0,0,0,.621-.18,1.334,1.334,0,0,0,.449-.461V18.3h-.836a.808.808,0,0,0-.734.352,1.615,1.615,0,0,0-.227.891,1.132,1.132,0,0,0,.2.688A.625.625,0,0,0,31.383,20.492Zm7.344-9.047v2.1H39.9v1.609H38.727V19.4a1.381,1.381,0,0,0,.148.738.464.464,0,0,0,.406.223,2.554,2.554,0,0,0,.344-.02,2.515,2.515,0,0,0,.313-.066l.172,1.688a4.425,4.425,0,0,1-.672.156,5.057,5.057,0,0,1-.727.047,2.038,2.038,0,0,1-1.637-.66,3.186,3.186,0,0,1-.566-2.1v-4.25h-1V13.547h1v-2.1ZM43.469,22H41.25V13.547h2.219Zm0-10.492H41.25v-1.7h2.219Zm4.258,7.3.1.641h.047l.109-.641.977-5.266h2.32L48.938,22H46.766l-2.352-8.453h2.32Zm4.008-1.555a4.2,4.2,0,0,1,.9-2.785,3.5,3.5,0,0,1,5.059,0,4.191,4.191,0,0,1,.906,2.785V18.3a4.168,4.168,0,0,1-.906,2.789,3.524,3.524,0,0,1-5.059,0,4.18,4.18,0,0,1-.9-2.789ZM53.945,18.3a3.529,3.529,0,0,0,.273,1.534.974.974,0,0,0,.953.556.962.962,0,0,0,.934-.559,3.49,3.49,0,0,0,.277-1.53V17.253a3.5,3.5,0,0,0-.277-1.522,1.063,1.063,0,0,0-1.883,0,3.5,3.5,0,0,0-.277,1.518Z" transform="translate(-7030 -5985)" fill="#00223d"/>
      <path id="Path_187978" data-name="Path 187978" d="M8.523-4.086A4.313,4.313,0,0,1,7.438-.961,3.832,3.832,0,0,1,4.547.164,3.807,3.807,0,0,1,1.664-.961,4.331,4.331,0,0,1,.586-4.086V-7.273A4.363,4.363,0,0,1,1.664-10.4a3.776,3.776,0,0,1,2.875-1.137A3.827,3.827,0,0,1,7.43-10.4,4.325,4.325,0,0,1,8.523-7.273ZM6.313-7.3a3.123,3.123,0,0,0-.453-1.845,1.531,1.531,0,0,0-1.32-.623,1.5,1.5,0,0,0-1.312.619A3.206,3.206,0,0,0,2.789-7.3v3.212a3.179,3.179,0,0,0,.445,1.857,1.514,1.514,0,0,0,1.313.619,1.526,1.526,0,0,0,1.313-.619,3.136,3.136,0,0,0,.453-1.857ZM9.969,0V-11.375H13.32a4.323,4.323,0,0,1,2.746.781,2.788,2.788,0,0,1,.988,2.328A2.853,2.853,0,0,1,16.7-6.824a2.216,2.216,0,0,1-1.078.941,2.018,2.018,0,0,1,1.328.914,3.1,3.1,0,0,1,.43,1.648,3.168,3.168,0,0,1-.934,2.477A3.857,3.857,0,0,1,13.766,0ZM12.2-5.016v3.242h1.57a1.335,1.335,0,0,0,1.051-.391,1.7,1.7,0,0,0,.348-1.164,2.217,2.217,0,0,0-.3-1.25,1.069,1.069,0,0,0-.953-.437Zm0-1.555h1.227a1.423,1.423,0,0,0,1.043-.4,1.52,1.52,0,0,0,.363-1.093,1.592,1.592,0,0,0-.375-1.171A1.547,1.547,0,0,0,13.32-9.6H12.2ZM22.82,0H20.6V-9.055l-2.109.047v-1.6l4.328-.773Z" transform="translate(-6890 -5985)" fill="#00223d"/>
      <path id="Path_187979" data-name="Path 187979" d="M6.945-4.727H3.086V0H.859V-11.375H7.625V-9.6H3.086v3.1H6.945ZM15.93-3.664l.023.047a3.91,3.91,0,0,1-.891,2.828,3.517,3.517,0,0,1-2.672.953A3.758,3.758,0,0,1,9.57-.918,4.211,4.211,0,0,1,8.516-3.984v-3.4a4.317,4.317,0,0,1,1.02-3.066,3.56,3.56,0,0,1,2.73-1.09A3.615,3.615,0,0,1,15-10.57,4.1,4.1,0,0,1,15.961-7.7l-.023.047H13.8a2.655,2.655,0,0,0-.3-1.615,1.4,1.4,0,0,0-1.227-.494,1.3,1.3,0,0,0-1.148.586,3.186,3.186,0,0,0-.4,1.775v3.417A3.056,3.056,0,0,0,11.145-2.2a1.443,1.443,0,0,0,1.246.586,1.259,1.259,0,0,0,1.121-.465,2.777,2.777,0,0,0,.277-1.59Z" transform="translate(-6798 -5985)" fill="#00223d"/>
      <path id="Path_187986" data-name="Path 187986" d="M6.945-4.727H3.086V0H.859V-11.375H7.625V-9.6H3.086v3.1H6.945ZM15.93-3.664l.023.047a3.91,3.91,0,0,1-.891,2.828,3.517,3.517,0,0,1-2.672.953A3.758,3.758,0,0,1,9.57-.918,4.211,4.211,0,0,1,8.516-3.984v-3.4a4.317,4.317,0,0,1,1.02-3.066,3.56,3.56,0,0,1,2.73-1.09A3.615,3.615,0,0,1,15-10.57,4.1,4.1,0,0,1,15.961-7.7l-.023.047H13.8a2.655,2.655,0,0,0-.3-1.615,1.4,1.4,0,0,0-1.227-.494,1.3,1.3,0,0,0-1.148.586,3.186,3.186,0,0,0-.4,1.775v3.417A3.056,3.056,0,0,0,11.145-2.2a1.443,1.443,0,0,0,1.246.586,1.259,1.259,0,0,0,1.121-.465,2.777,2.777,0,0,0,.277-1.59Z" transform="translate(-6798 -5867)" fill="#00223d"/>
      <path id="Path_187987" data-name="Path 187987" d="M6.945-4.727H3.086V0H.859V-11.375H7.625V-9.6H3.086v3.1H6.945ZM15.93-3.664l.023.047a3.91,3.91,0,0,1-.891,2.828,3.517,3.517,0,0,1-2.672.953A3.758,3.758,0,0,1,9.57-.918,4.211,4.211,0,0,1,8.516-3.984v-3.4a4.317,4.317,0,0,1,1.02-3.066,3.56,3.56,0,0,1,2.73-1.09A3.615,3.615,0,0,1,15-10.57,4.1,4.1,0,0,1,15.961-7.7l-.023.047H13.8a2.655,2.655,0,0,0-.3-1.615,1.4,1.4,0,0,0-1.227-.494,1.3,1.3,0,0,0-1.148.586,3.186,3.186,0,0,0-.4,1.775v3.417A3.056,3.056,0,0,0,11.145-2.2a1.443,1.443,0,0,0,1.246.586,1.259,1.259,0,0,0,1.121-.465,2.777,2.777,0,0,0,.277-1.59Z" transform="translate(-6798 -5762)" fill="#00223d"/>
      <path id="Path_187981" data-name="Path 187981" d="M.859,0V-11.375H4.3a3.65,3.65,0,0,1,2.891,1.324,5.039,5.039,0,0,1,1.141,3.41v1.914A5.024,5.024,0,0,1,7.188-1.32,3.654,3.654,0,0,1,4.3,0ZM3.086-9.6v7.828H4.172a1.6,1.6,0,0,0,1.434-.809,4.023,4.023,0,0,0,.5-2.147V-6.661a3.985,3.985,0,0,0-.5-2.135A1.6,1.6,0,0,0,4.172-9.6ZM9.852,0V-11.375H13.2a4.323,4.323,0,0,1,2.746.781,2.788,2.788,0,0,1,.988,2.328,2.853,2.853,0,0,1-.359,1.441,2.216,2.216,0,0,1-1.078.941,2.018,2.018,0,0,1,1.328.914,3.1,3.1,0,0,1,.43,1.648,3.168,3.168,0,0,1-.934,2.477A3.857,3.857,0,0,1,13.648,0Zm2.227-5.016v3.242h1.57A1.335,1.335,0,0,0,14.7-2.164a1.7,1.7,0,0,0,.348-1.164,2.217,2.217,0,0,0-.3-1.25,1.069,1.069,0,0,0-.953-.437Zm0-1.555H13.3a1.423,1.423,0,0,0,1.043-.4,1.52,1.52,0,0,0,.363-1.093,1.592,1.592,0,0,0-.375-1.171A1.547,1.547,0,0,0,13.2-9.6H12.078Z" transform="translate(-6691 -6013)" fill="#00223d"/>
      <path id="Path_187983" data-name="Path 187983" d="M.859,0V-11.375H4.3a3.65,3.65,0,0,1,2.891,1.324,5.039,5.039,0,0,1,1.141,3.41v1.914A5.024,5.024,0,0,1,7.188-1.32,3.654,3.654,0,0,1,4.3,0ZM3.086-9.6v7.828H4.172a1.6,1.6,0,0,0,1.434-.809,4.023,4.023,0,0,0,.5-2.147V-6.661a3.985,3.985,0,0,0-.5-2.135A1.6,1.6,0,0,0,4.172-9.6ZM9.852,0V-11.375H13.2a4.323,4.323,0,0,1,2.746.781,2.788,2.788,0,0,1,.988,2.328,2.853,2.853,0,0,1-.359,1.441,2.216,2.216,0,0,1-1.078.941,2.018,2.018,0,0,1,1.328.914,3.1,3.1,0,0,1,.43,1.648,3.168,3.168,0,0,1-.934,2.477A3.857,3.857,0,0,1,13.648,0Zm2.227-5.016v3.242h1.57A1.335,1.335,0,0,0,14.7-2.164a1.7,1.7,0,0,0,.348-1.164,2.217,2.217,0,0,0-.3-1.25,1.069,1.069,0,0,0-.953-.437Zm0-1.555H13.3a1.423,1.423,0,0,0,1.043-.4,1.52,1.52,0,0,0,.363-1.093,1.592,1.592,0,0,0-.375-1.171A1.547,1.547,0,0,0,13.2-9.6H12.078Z" transform="translate(-6601 -5895)" fill="#00223d"/>
      <rect id="Rectangle_38532" data-name="Rectangle 38532" width="35" height="2" transform="translate(-6846 -5992)" fill="#a042bf"/>
      <rect id="Rectangle_38552" data-name="Rectangle 38552" width="35" height="2" transform="translate(-6846 -5874)" fill="#a042bf"/>
      <rect id="Rectangle_38562" data-name="Rectangle 38562" width="35" height="2" transform="translate(-6846 -5769)" fill="#a042bf"/>
      <rect id="Rectangle_38534" data-name="Rectangle 38534" width="50" height="2" transform="translate(-6959 -5992)" fill="#a042bf"/>
      <rect id="Rectangle_38566" data-name="Rectangle 38566" width="57" height="2" transform="translate(-6961 -5749)" fill="#afafaf"/>
      <rect id="Rectangle_38533" data-name="Rectangle 38533" width="27" height="2" transform="translate(-6754 -5992)" fill="#a042bf"/>
      <rect id="Rectangle_38545" data-name="Rectangle 38545" width="27" height="2" transform="translate(-6754 -5874)" fill="#a042bf"/>
      <rect id="Rectangle_38558" data-name="Rectangle 38558" width="27" height="2" transform="translate(-6754 -5769)" fill="#a042bf"/>
      <rect id="Rectangle_38535" data-name="Rectangle 38535" width="28" height="2" transform="translate(-6666 -5992)" fill="#a042bf"/>
      <rect id="Rectangle_38546" data-name="Rectangle 38546" width="28" height="2" transform="translate(-6666 -5874)" fill="#a042bf"/>
      <rect id="Rectangle_38554" data-name="Rectangle 38554" width="28" height="2" transform="translate(-6666 -5769)" fill="#a042bf"/>
      <rect id="Rectangle_38536" data-name="Rectangle 38536" width="43" height="2" transform="matrix(-0.719, -0.695, 0.695, -0.719, -6634.217, -5940.557)" fill="#a042bf"/>
      <rect id="Rectangle_38547" data-name="Rectangle 38547" width="43" height="2" transform="matrix(-0.719, -0.695, 0.695, -0.719, -6634.217, -5822.557)" fill="#a042bf"/>
      <rect id="Rectangle_38556" data-name="Rectangle 38556" width="43" height="2" transform="matrix(-0.719, -0.695, 0.695, -0.719, -6634.217, -5717.557)" fill="#a042bf"/>
      <rect id="Rectangle_38537" data-name="Rectangle 38537" width="43" height="2" transform="matrix(-0.719, -0.695, 0.695, -0.719, -6721.217, -5940.557)" fill="#a042bf"/>
      <rect id="Rectangle_38550" data-name="Rectangle 38550" width="43" height="2" transform="matrix(-0.719, -0.695, 0.695, -0.719, -6721.217, -5822.557)" fill="#a042bf"/>
      <rect id="Rectangle_38559" data-name="Rectangle 38559" width="43" height="2" transform="matrix(-0.719, -0.695, 0.695, -0.719, -6721.217, -5717.557)" fill="#a042bf"/>
      <rect id="Rectangle_38538" data-name="Rectangle 38538" width="43" height="2" transform="matrix(-0.719, -0.695, 0.695, -0.719, -6810.388, -5940.557)" fill="#a042bf"/>
      <rect id="Rectangle_38551" data-name="Rectangle 38551" width="43" height="2" transform="matrix(-0.719, -0.695, 0.695, -0.719, -6810.388, -5822.557)" fill="#a042bf"/>
      <rect id="Rectangle_38561" data-name="Rectangle 38561" width="43" height="2" transform="matrix(-0.719, -0.695, 0.695, -0.719, -6810.388, -5717.557)" fill="#a042bf"/>
      <rect id="Rectangle_38540" data-name="Rectangle 38540" width="167" height="2" transform="translate(-6906.89 -5801.904) rotate(-108)" fill="#a042bf"/>
      <path id="Polygon_54" data-name="Polygon 54" d="M4,0,8,8.4H0Z" transform="translate(-6806 -5995) rotate(90)" fill="#a042bf"/>
      <path id="Polygon_67" data-name="Polygon 67" d="M4,0,8,8.4H0Z" transform="translate(-6806 -5877) rotate(90)" fill="#a042bf"/>
      <path id="Polygon_73" data-name="Polygon 73" d="M4,0,8,8.4H0Z" transform="translate(-6806 -5772) rotate(90)" fill="#a042bf"/>
      <path id="Polygon_56" data-name="Polygon 56" d="M4,0,8,8.4H0Z" transform="translate(-6904 -5995) rotate(90)" fill="#a042bf"/>
      <g id="Group_118657" data-name="Group 118657">
        <g id="Group_118656" data-name="Group 118656" transform="translate(0 -14)">
          <rect id="Rectangle_38563" data-name="Rectangle 38563" width="3" height="2" transform="translate(-6959 -5721)" fill="#a042bf"/>
          <rect id="Rectangle_38565" data-name="Rectangle 38565" width="3" height="2" transform="translate(-6954 -5721)" fill="#a042bf"/>
          <rect id="Rectangle_38567" data-name="Rectangle 38567" width="3" height="2" transform="translate(-6949 -5721)" fill="#a042bf"/>
          <rect id="Rectangle_38568" data-name="Rectangle 38568" width="3" height="2" transform="translate(-6944 -5721)" fill="#a042bf"/>
          <rect id="Rectangle_38569" data-name="Rectangle 38569" width="3" height="2" transform="translate(-6939 -5721)" fill="#a042bf"/>
          <rect id="Rectangle_38570" data-name="Rectangle 38570" width="3" height="2" transform="translate(-6934 -5721)" fill="#a042bf"/>
          <rect id="Rectangle_38571" data-name="Rectangle 38571" width="3" height="2" transform="translate(-6929 -5721)" fill="#a042bf"/>
          <rect id="Rectangle_38572" data-name="Rectangle 38572" width="3" height="2" transform="translate(-6924 -5721)" fill="#a042bf"/>
          <rect id="Rectangle_38573" data-name="Rectangle 38573" width="3" height="2" transform="translate(-6919 -5721)" fill="#a042bf"/>
          <rect id="Rectangle_38574" data-name="Rectangle 38574" width="3" height="2" transform="translate(-6914 -5721)" fill="#a042bf"/>
        </g>
        <path id="Polygon_61" data-name="Polygon 61" d="M4,0,8,8.4H0Z" transform="translate(-6904 -5738) rotate(90)" fill="#a042bf"/>
      </g>
      <path id="Polygon_55" data-name="Polygon 55" d="M4,0,8,8.4H0Z" transform="translate(-6722 -5995) rotate(90)" fill="#a042bf"/>
      <path id="Polygon_63" data-name="Polygon 63" d="M4,0,8,8.4H0Z" transform="translate(-6722 -5877) rotate(90)" fill="#a042bf"/>
      <path id="Polygon_71" data-name="Polygon 71" d="M4,0,8,8.4H0Z" transform="translate(-6722 -5772) rotate(90)" fill="#a042bf"/>
      <path id="Polygon_57" data-name="Polygon 57" d="M4,0,8,8.4H0Z" transform="translate(-6633 -5995) rotate(90)" fill="#a042bf"/>
      <path id="Polygon_64" data-name="Polygon 64" d="M4,0,8,8.4H0Z" transform="translate(-6633 -5877) rotate(90)" fill="#a042bf"/>
      <path id="Polygon_69" data-name="Polygon 69" d="M4,0,8,8.4H0Z" transform="translate(-6633 -5772) rotate(90)" fill="#a042bf"/>
      <path id="Polygon_58" data-name="Polygon 58" d="M4,0,8,8.4H0Z" transform="matrix(0.695, -0.719, 0.719, 0.695, -6670.829, -5971.743)" fill="#a042bf"/>
      <path id="Polygon_65" data-name="Polygon 65" d="M4,0,8,8.4H0Z" transform="matrix(0.695, -0.719, 0.719, 0.695, -6670.829, -5853.743)" fill="#a042bf"/>
      <path id="Polygon_70" data-name="Polygon 70" d="M4,0,8,8.4H0Z" transform="matrix(0.695, -0.719, 0.719, 0.695, -6670.829, -5748.743)" fill="#a042bf"/>
      <path id="Polygon_59" data-name="Polygon 59" d="M4,0,8,8.4H0Z" transform="matrix(0.695, -0.719, 0.719, 0.695, -6757.829, -5971.743)" fill="#a042bf"/>
      <path id="Polygon_66" data-name="Polygon 66" d="M4,0,8,8.4H0Z" transform="matrix(0.695, -0.719, 0.719, 0.695, -6757.829, -5853.743)" fill="#a042bf"/>
      <path id="Polygon_72" data-name="Polygon 72" d="M4,0,8,8.4H0Z" transform="matrix(0.695, -0.719, 0.719, 0.695, -6757.829, -5748.743)" fill="#a042bf"/>
      <path id="Polygon_60" data-name="Polygon 60" d="M4,0,8,8.4H0Z" transform="matrix(0.695, -0.719, 0.719, 0.695, -6847, -5971.743)" fill="#a042bf"/>
      <path id="Polygon_68" data-name="Polygon 68" d="M4,0,8,8.4H0Z" transform="matrix(0.695, -0.719, 0.719, 0.695, -6847, -5853.743)" fill="#a042bf"/>
      <path id="Polygon_74" data-name="Polygon 74" d="M4,0,8,8.4H0Z" transform="matrix(0.695, -0.719, 0.719, 0.695, -6847, -5748.743)" fill="#a042bf"/>
      <path id="Polygon_62" data-name="Polygon 62" d="M4,0,8,8.4H0Z" transform="translate(-6962.894 -5964.559) rotate(-18)" fill="#a042bf"/>
      <rect id="Rectangle_38541" data-name="Rectangle 38541" width="51" height="80" rx="8" transform="translate(-6719 -6010)" fill="#dee4f0"/>
      <path id="Rectangle_38541_-_Outline" data-name="Rectangle 38541 - Outline" d="M8,2A6.007,6.007,0,0,0,2,8V72a6.007,6.007,0,0,0,6,6H43a6.007,6.007,0,0,0,6-6V8a6.007,6.007,0,0,0-6-6H8M8,0H43a8,8,0,0,1,8,8V72a8,8,0,0,1-8,8H8a8,8,0,0,1-8-8V8A8,8,0,0,1,8,0Z" transform="translate(-6719 -6010)" fill="#b0c0d2"/>
      <rect id="Rectangle_38548" data-name="Rectangle 38548" width="51" height="80" rx="8" transform="translate(-6719 -5892)" fill="#dee4f0"/>
      <path id="Rectangle_38548_-_Outline" data-name="Rectangle 38548 - Outline" d="M8,2A6.007,6.007,0,0,0,2,8V72a6.007,6.007,0,0,0,6,6H43a6.007,6.007,0,0,0,6-6V8a6.007,6.007,0,0,0-6-6H8M8,0H43a8,8,0,0,1,8,8V72a8,8,0,0,1-8,8H8a8,8,0,0,1-8-8V8A8,8,0,0,1,8,0Z" transform="translate(-6719 -5892)" fill="#b0c0d2"/>
      <rect id="Rectangle_38557" data-name="Rectangle 38557" width="51" height="80" rx="8" transform="translate(-6719 -5787)" fill="#dee4f0"/>
      <path id="Rectangle_38557_-_Outline" data-name="Rectangle 38557 - Outline" d="M8,2A6.007,6.007,0,0,0,2,8V72a6.007,6.007,0,0,0,6,6H43a6.007,6.007,0,0,0,6-6V8a6.007,6.007,0,0,0-6-6H8M8,0H43a8,8,0,0,1,8,8V72a8,8,0,0,1-8,8H8a8,8,0,0,1-8-8V8A8,8,0,0,1,8,0Z" transform="translate(-6719 -5787)" fill="#b0c0d2"/>
      <rect id="Rectangle_38542" data-name="Rectangle 38542" width="51" height="80" rx="8" transform="translate(-6633 -6010)" fill="#dee4f0"/>
      <path id="Rectangle_38542_-_Outline" data-name="Rectangle 38542 - Outline" d="M8,2A6.007,6.007,0,0,0,2,8V72a6.007,6.007,0,0,0,6,6H43a6.007,6.007,0,0,0,6-6V8a6.007,6.007,0,0,0-6-6H8M8,0H43a8,8,0,0,1,8,8V72a8,8,0,0,1-8,8H8a8,8,0,0,1-8-8V8A8,8,0,0,1,8,0Z" transform="translate(-6633 -6010)" fill="#b0c0d2"/>
      <rect id="Rectangle_38543" data-name="Rectangle 38543" width="51" height="80" rx="8" transform="translate(-6633 -5892)" fill="#dee4f0"/>
      <path id="Rectangle_38543_-_Outline" data-name="Rectangle 38543 - Outline" d="M8,2A6.007,6.007,0,0,0,2,8V72a6.007,6.007,0,0,0,6,6H43a6.007,6.007,0,0,0,6-6V8a6.007,6.007,0,0,0-6-6H8M8,0H43a8,8,0,0,1,8,8V72a8,8,0,0,1-8,8H8a8,8,0,0,1-8-8V8A8,8,0,0,1,8,0Z" transform="translate(-6633 -5892)" fill="#b0c0d2"/>
      <path id="Path_187980" data-name="Path 187980" d="M6.945-4.727H3.086V0H.859V-11.375H7.625V-9.6H3.086v3.1H6.945ZM8.8,0V-11.375h3.352a4.323,4.323,0,0,1,2.746.781,2.788,2.788,0,0,1,.988,2.328,2.853,2.853,0,0,1-.359,1.441,2.216,2.216,0,0,1-1.078.941,2.018,2.018,0,0,1,1.328.914A3.1,3.1,0,0,1,16.2-3.32,3.168,3.168,0,0,1,15.27-.844,3.857,3.857,0,0,1,12.594,0Zm2.227-5.016v3.242h1.57a1.335,1.335,0,0,0,1.051-.391,1.7,1.7,0,0,0,.348-1.164,2.217,2.217,0,0,0-.3-1.25,1.069,1.069,0,0,0-.953-.437Zm0-1.555H12.25a1.423,1.423,0,0,0,1.043-.4,1.52,1.52,0,0,0,.363-1.093,1.592,1.592,0,0,0-.375-1.171A1.547,1.547,0,0,0,12.148-9.6H11.023Z" transform="translate(-6711 -5985)" fill="#00223d"/>
      <path id="Path_187985" data-name="Path 187985" d="M6.945-4.727H3.086V0H.859V-11.375H7.625V-9.6H3.086v3.1H6.945ZM15.93-3.664l.023.047a3.91,3.91,0,0,1-.891,2.828,3.517,3.517,0,0,1-2.672.953A3.758,3.758,0,0,1,9.57-.918,4.211,4.211,0,0,1,8.516-3.984v-3.4a4.317,4.317,0,0,1,1.02-3.066,3.56,3.56,0,0,1,2.73-1.09A3.615,3.615,0,0,1,15-10.57,4.1,4.1,0,0,1,15.961-7.7l-.023.047H13.8a2.655,2.655,0,0,0-.3-1.615,1.4,1.4,0,0,0-1.227-.494,1.3,1.3,0,0,0-1.148.586,3.186,3.186,0,0,0-.4,1.775v3.417A3.056,3.056,0,0,0,11.145-2.2a1.443,1.443,0,0,0,1.246.586,1.259,1.259,0,0,0,1.121-.465,2.777,2.777,0,0,0,.277-1.59Z" transform="translate(-6711 -5867)" fill="#00223d"/>
      <path id="Path_187988" data-name="Path 187988" d="M6.945-4.727H3.086V0H.859V-11.375H7.625V-9.6H3.086v3.1H6.945ZM15.93-3.664l.023.047a3.91,3.91,0,0,1-.891,2.828,3.517,3.517,0,0,1-2.672.953A3.758,3.758,0,0,1,9.57-.918,4.211,4.211,0,0,1,8.516-3.984v-3.4a4.317,4.317,0,0,1,1.02-3.066,3.56,3.56,0,0,1,2.73-1.09A3.615,3.615,0,0,1,15-10.57,4.1,4.1,0,0,1,15.961-7.7l-.023.047H13.8a2.655,2.655,0,0,0-.3-1.615,1.4,1.4,0,0,0-1.227-.494,1.3,1.3,0,0,0-1.148.586,3.186,3.186,0,0,0-.4,1.775v3.417A3.056,3.056,0,0,0,11.145-2.2a1.443,1.443,0,0,0,1.246.586,1.259,1.259,0,0,0,1.121-.465,2.777,2.777,0,0,0,.277-1.59Z" transform="translate(-6711 -5762)" fill="#00223d"/>
      <path id="Path_187982" data-name="Path 187982" d="M6.945-4.727H3.086V0H.859V-11.375H7.625V-9.6H3.086v3.1H6.945ZM15.93-3.664l.023.047a3.91,3.91,0,0,1-.891,2.828,3.517,3.517,0,0,1-2.672.953A3.758,3.758,0,0,1,9.57-.918,4.211,4.211,0,0,1,8.516-3.984v-3.4a4.317,4.317,0,0,1,1.02-3.066,3.56,3.56,0,0,1,2.73-1.09A3.615,3.615,0,0,1,15-10.57,4.1,4.1,0,0,1,15.961-7.7l-.023.047H13.8a2.655,2.655,0,0,0-.3-1.615,1.4,1.4,0,0,0-1.227-.494,1.3,1.3,0,0,0-1.148.586,3.186,3.186,0,0,0-.4,1.775v3.417A3.056,3.056,0,0,0,11.145-2.2a1.443,1.443,0,0,0,1.246.586,1.259,1.259,0,0,0,1.121-.465,2.777,2.777,0,0,0,.277-1.59Z" transform="translate(-6625 -5985)" fill="#00223d"/>
      <path id="Path_187984" data-name="Path 187984" d="M6.945-4.727H3.086V0H.859V-11.375H7.625V-9.6H3.086v3.1H6.945ZM8.8,0V-11.375h3.352a4.323,4.323,0,0,1,2.746.781,2.788,2.788,0,0,1,.988,2.328,2.853,2.853,0,0,1-.359,1.441,2.216,2.216,0,0,1-1.078.941,2.018,2.018,0,0,1,1.328.914A3.1,3.1,0,0,1,16.2-3.32,3.168,3.168,0,0,1,15.27-.844,3.857,3.857,0,0,1,12.594,0Zm2.227-5.016v3.242h1.57a1.335,1.335,0,0,0,1.051-.391,1.7,1.7,0,0,0,.348-1.164,2.217,2.217,0,0,0-.3-1.25,1.069,1.069,0,0,0-.953-.437Zm0-1.555H12.25a1.423,1.423,0,0,0,1.043-.4,1.52,1.52,0,0,0,.363-1.093,1.592,1.592,0,0,0-.375-1.171A1.547,1.547,0,0,0,12.148-9.6H11.023Z" transform="translate(-6625 -5867)" fill="#00223d"/>
      <path id="Path_187989" data-name="Path 187989" d="M5.914-2.969A1.525,1.525,0,0,0,5.57-4.02a3.5,3.5,0,0,0-1.211-.762,8.005,8.005,0,0,1-2.66-1.4,2.784,2.784,0,0,1-.887-2.2A2.852,2.852,0,0,1,1.844-10.66a3.917,3.917,0,0,1,2.633-.879,3.643,3.643,0,0,1,2.641.98A3.193,3.193,0,0,1,8.1-8.086l-.016.047H5.93A1.954,1.954,0,0,0,5.539-9.3a1.335,1.335,0,0,0-1.1-.484,1.338,1.338,0,0,0-1.035.4,1.435,1.435,0,0,0-.371,1.012,1.177,1.177,0,0,0,.414.926,5.836,5.836,0,0,0,1.438.809A6.05,6.05,0,0,1,7.316-5.254a3.117,3.117,0,0,1,.816,2.27A2.871,2.871,0,0,1,7.148-.672,3.907,3.907,0,0,1,4.531.164,4.383,4.383,0,0,1,1.715-.785,3.181,3.181,0,0,1,.563-3.508l.016-.047H2.742a2.134,2.134,0,0,0,.445,1.516,1.788,1.788,0,0,0,1.344.461,1.339,1.339,0,0,0,1.043-.375A1.455,1.455,0,0,0,5.914-2.969Zm9.7-1.758H11.75V0H9.523V-11.375h6.766V-9.6H11.75v3.1h3.859Zm8.984,1.063.023.047a3.91,3.91,0,0,1-.891,2.828,3.517,3.517,0,0,1-2.672.953,3.758,3.758,0,0,1-2.82-1.082A4.211,4.211,0,0,1,17.18-3.984v-3.4a4.317,4.317,0,0,1,1.02-3.066,3.56,3.56,0,0,1,2.73-1.09,3.615,3.615,0,0,1,2.738.969A4.1,4.1,0,0,1,24.625-7.7l-.023.047H22.461a2.655,2.655,0,0,0-.3-1.615,1.4,1.4,0,0,0-1.227-.494,1.3,1.3,0,0,0-1.148.586,3.186,3.186,0,0,0-.4,1.775v3.417A3.056,3.056,0,0,0,19.809-2.2a1.443,1.443,0,0,0,1.246.586,1.259,1.259,0,0,0,1.121-.465,2.777,2.777,0,0,0,.277-1.59Z" transform="translate(-6620 -5762)" fill="#00223d"/>
    </g>
  </g>
</svg>
