<svg xmlns="http://www.w3.org/2000/svg" width="75" height="61.8" viewBox="0 0 75 61.8">
  <g id="t3-im1" transform="translate(1739.64 5098.516)">
    <path id="Path_185919" data-name="Path 185919" d="M4.394,48.4A4.4,4.4,0,0,1,0,43.989V0H75V43.989A4.4,4.4,0,0,1,70.605,48.4Z" transform="translate(-1739.64 -5090.13)" fill="#e6f2ff"/>
    <path id="Path_185920" data-name="Path 185920" d="M0,36.339V0H66.761V31.925a4.4,4.4,0,0,1-4.392,4.414Z" transform="translate(-1739.626 -5085.569)" fill="#f3f9ff"/>
    <path id="Path_185922" data-name="Path 185922" d="M718.639,597.189v-8.533a4.4,4.4,0,0,1,4.395-4.414h66.211a4.4,4.4,0,0,1,4.394,4.414v8.533Z" transform="translate(-2458.279 -5682.758)" fill="#95e17a"/>
    <path id="Path_185906" data-name="Path 185906" d="M61.478,222.78a1.159,1.159,0,0,1,1.79-.5,1.434,1.434,0,0,1,.443.772c.842,2.492,1.708,4.977,2.541,7.472.026,0,.079,0,.106,0q1.328-3.844,2.689-7.678a1.134,1.134,0,1,1,2.116.819q-1.876,5.371-3.762,10.74a1.173,1.173,0,0,1-.945.856,1.145,1.145,0,0,1-1.258-.8c-.874-2.57-1.764-5.136-2.623-7.711l-.1.032c-.967,2.614-1.86,5.258-2.829,7.871a1.14,1.14,0,0,1-2.063-.093q-1.891-5.455-3.756-10.921a1.135,1.135,0,1,1,2.155-.711c.869,2.533,1.751,5.064,2.605,7.6l.135.006C59.624,227.94,60.561,225.364,61.478,222.78Z" transform="translate(-1785.492 -5294.658)" fill="#582469"/>
    <path id="Path_185907" data-name="Path 185907" d="M204.48,222.691a1.15,1.15,0,0,1,2.064.046q1.344,3.9,2.664,7.815l.1-.007q1.326-3.829,2.679-7.647a1.134,1.134,0,1,1,2.13.78q-1.907,5.446-3.819,10.888a1.141,1.141,0,0,1-2.1.037c-.9-2.614-1.805-5.229-2.67-7.855l-.134.121c-.939,2.6-1.84,5.217-2.8,7.811a1.141,1.141,0,0,1-2.052-.081c-1.264-3.638-2.507-7.284-3.759-10.927a1.135,1.135,0,1,1,2.152-.719c.869,2.533,1.755,5.062,2.6,7.6l.138-.009Q203.058,226.611,204.48,222.691Z" transform="translate(-1907.58 -5294.682)" fill="#582469"/>
    <path id="Path_185908" data-name="Path 185908" d="M345.13,222.682a1.148,1.148,0,0,1,2.076.1c.89,2.579,1.761,5.165,2.647,7.747l.074.082c.914-2.591,1.81-5.189,2.733-7.777a1.139,1.139,0,0,1,1.933-.272,1.428,1.428,0,0,1,.031,1.524q-1.836,5.221-3.665,10.447a1.143,1.143,0,0,1-2.139,0q-1.32-3.857-2.629-7.718l-.132-.034c-.9,2.589-1.833,5.167-2.753,7.749a1.143,1.143,0,0,1-1.4.711,1.184,1.184,0,0,1-.787-.839q-1.84-5.371-3.688-10.74a1.137,1.137,0,0,1,.447-1.336,1.168,1.168,0,0,1,1.762.771c.847,2.485,1.711,4.965,2.554,7.452l.1.041C343.25,227.964,344.168,225.314,345.13,222.682Z" transform="translate(-2027.695 -5294.685)" fill="#582469"/>
    <g id="_dd636eff" data-name="#dd636eff" transform="translate(-1733.243 -5094.13)">
      <path id="Path_185910" data-name="Path 185910" d="M45.059,75.879a2.1,2.1,0,1,1-1.552,2.308A2.11,2.11,0,0,1,45.059,75.879Z" transform="translate(-43.484 -75.806)" fill="#fe7f05"/>
    </g>
    <g id="_ffe07dff" data-name="#ffe07dff" transform="translate(-1726.823 -5094.132)">
      <path id="Path_185911" data-name="Path 185911" d="M88.963,75.906a2.1,2.1,0,1,1-1.434,2.105A2.109,2.109,0,0,1,88.963,75.906Z" transform="translate(-87.523 -75.792)" fill="#ffbd31"/>
    </g>
    <g id="_86f1a7ff" data-name="#86f1a7ff" transform="translate(-1720.378 -5094.131)">
      <path id="Path_185912" data-name="Path 185912" d="M133.09,75.879a2.1,2.1,0,1,1-1.539,2.289A2.107,2.107,0,0,1,133.09,75.879Z" transform="translate(-131.53 -75.801)" fill="#a042bf"/>
    </g>
    <g id="_efe7e4ff" data-name="#efe7e4ff" transform="translate(-1718.414 -5057.665)">
      <path id="Path_185916" data-name="Path 185916" d="M145.207,324.69a.725.725,0,0,1,.8-1c.968.255,1.888.683,2.829,1.024,1.626,4.439,3.288,8.865,4.94,13.294.087.544.808.549,1.1.172,2.706-2.729,5.445-5.423,8.137-8.162.74.177,1.429.508,2.148.743.3.1.665.215.774.555.131.271-.1.522-.218.75a20.36,20.36,0,0,0-1.521,1.461c-.959.986-1.96,1.93-2.9,2.932-.58.615-1.242,1.155-1.767,1.815.722.895,1.62,1.633,2.4,2.476.369.325.7.918,1.284.75a7.687,7.687,0,0,0,1.227-1.112.5.5,0,0,0,.188-.59,11.653,11.653,0,0,1,1.37,1.326c.031.1.091.3.121.4-.031.1-.094.294-.125.393-.794.833-1.626,1.632-2.435,2.451a.756.756,0,0,1-1.127,0c-1.515-1.512-3.025-3.031-4.545-4.539-1.512,1.493-3,3.01-4.517,4.5a.589.589,0,0,1-.939-.228c-.546-1.449-1.077-2.9-1.624-4.352-.967-2.551-1.877-5.123-2.863-7.665C147.055,329.611,146.112,327.157,145.207,324.69Z" transform="translate(-145.15 -323.667)" fill="#ffd341"/>
    </g>
    <g id="_f6f1f1ff" data-name="#f6f1f1ff" transform="translate(-1714.737 -5056.62)">
      <path id="Path_185917" data-name="Path 185917" d="M170.2,330.77c4.724,1.773,9.467,3.5,14.177,5.3-2.692,2.739-5.432,5.433-8.137,8.162-.291.377-1.012.372-1.1-.172C173.488,339.635,171.826,335.209,170.2,330.77Z" transform="translate(-170.2 -330.77)" fill="#ffdc69"/>
      <path id="Path_185918" data-name="Path 185918" d="M242.87,412.415c.525-.661,1.187-1.2,1.767-1.815,1.139,1.083,2.255,2.2,3.334,3.34a.5.5,0,0,1-.188.59,7.687,7.687,0,0,1-1.227,1.112c-.58.168-.915-.425-1.284-.75C244.49,414.049,243.592,413.31,242.87,412.415Z" transform="translate(-232.179 -398.855)" fill="#ffdc69"/>
    </g>
    <path id="Path_185921" data-name="Path 185921" d="M0,12.947V0H3.825A4.414,4.414,0,0,1,8.239,4.414v8.533Z" transform="translate(-1672.879 -5098.516)" fill="#62c065"/>
  </g>
</svg>
