<svg xmlns="http://www.w3.org/2000/svg" xmlns:xlink="http://www.w3.org/1999/xlink" width="189.999" height="100" viewBox="0 0 189.999 100">
  <defs>
    <linearGradient id="linear-gradient" x1="0.5" x2="0.5" y2="1" gradientUnits="objectBoundingBox">
      <stop offset="0" stop-color="#ffd341"/>
      <stop offset="1" stop-color="#ffbd31"/>
    </linearGradient>
    <linearGradient id="linear-gradient-2" x1="0.5" x2="0.5" y2="1" gradientUnits="objectBoundingBox">
      <stop offset="0" stop-color="#95e17a"/>
      <stop offset="1" stop-color="#3aa255"/>
    </linearGradient>
    <linearGradient id="linear-gradient-5" x1="0.5" x2="0.5" y2="1" gradientUnits="objectBoundingBox">
      <stop offset="0" stop-color="#a042bf"/>
      <stop offset="1" stop-color="#8126b2"/>
    </linearGradient>
  </defs>
  <g id="t3-ic2" transform="translate(-179.833 -1505)">
    <g id="Group_118596" data-name="Group 118596" transform="translate(0)">
      <path id="Path_179383" data-name="Path 179383" d="M22.289,24.943C-1.96,45.272-7.5,10.168,11.007,2.292S42.46,8.032,22.289,24.943" transform="translate(179.833 1505)" fill="url(#linear-gradient)"/>
      <path id="Path_179384" data-name="Path 179384" d="M41.724,25.739c-5.6,6.076-17.01.9-9.594-7.064,8.854-9.515,15.191.988,9.594,7.064" transform="translate(181.332 1505.749)" fill="url(#linear-gradient-2)"/>
      <path id="Path_179385" data-name="Path 179385" d="M167.906,75.089c25.308-21.217,31.087,15.42,11.775,23.641s-32.827-5.99-11.775-23.641" transform="translate(178.664 1503.878)" fill="url(#linear-gradient-2)"/>
      <path id="Path_179386" data-name="Path 179386" d="M141.738,79.283c4.141-8.157,17.859-6.073,12.349,4.647-6.58,12.8-16.489,3.51-12.349-4.647" transform="translate(178.075 1504.082)" fill="url(#linear-gradient)"/>
      <path id="Path_179387" data-name="Path 179387" d="M181.455,65.306c6.068-.231,8.621-9.082.626-8.736-9.547.412-6.694,8.967-.626,8.736" transform="translate(178.462 1500.772)" fill="url(#linear-gradient-5)"/>
    </g>
    <g id="Group_118595" data-name="Group 118595" transform="translate(1900.666 11475)">
      <path id="Path_187778" data-name="Path 187778" d="M27.982,48.173c.024,0,.793-3.513.826-3.662l6.14-2.126L37.426,43.8l5.9-5.9-1.417-2.952,1.417-5.313,4.25-1.063V19.126H44.51l-2.6-6.73,1.417-2.125L37.426,3.9,33.884,5.667l-5.077-2.6L27.981,0H19.362l-1.3,3.9L11.806,5.667l-2.6-.945L3.66,9.8l1.535,2.6-2.715,6.73H0v9.445l2.479.472,0,0c.242.568,2.378,5.562,2.713,5.9S4.38,37.873,4.368,37.9l4.841,5.9,4.132-1.417,4.723,2.6L19.953,47.7c.08,0,8.028.356,8.028.472C27.981,48.172,27.981,48.173,27.982,48.173ZM23.819,8.825a15.23,15.23,0,1,1-15.23,15.23A15.248,15.248,0,0,1,23.819,8.825Z" transform="translate(-1649.87 -9946.298)" fill="#b472ca"/>
      <path id="Intersection_1" data-name="Intersection 1" d="M10.784,3.662,4.644,5.788,2.165,4.371,0,6.536l5.789,6.088A15.223,15.223,0,0,1,26.748,34.666l6.158,6.476,3.026-2.768-1.535-2.6,2.715-6.73h2.479V19.6l-2.479-.472,0,0c-.242-.568-2.378-5.562-2.713-5.9s.815-2.926.826-2.952l-4.841-5.9L26.25,5.788l-4.723-2.6L19.638.475C19.558.471,11.61.119,11.61,0c0,0,0,0,0,0C11.585,0,10.816,3.513,10.784,3.662Z" transform="translate(-1610.279 -9898.125) rotate(180)" fill="#a042bf"/>
      <path id="Path_187781" data-name="Path 187781" d="M-1464.861-9546.5c-.458,0,0,9.3,0,9.3l2.681-1.54,5.185-2.977Z" transform="translate(-165.213 -341.916)" fill="#ffbd31"/>
      <g id="_000000ff" data-name="#000000ff" transform="translate(-1665.833 -9962)">
        <path id="Path_187733" data-name="Path 187733" d="M263.738,16a39.664,39.664,0,0,0-5.667,78.919c.007,1.562-.014,3.122.007,4.682a1.417,1.417,0,0,0,1.411,1.4,2.033,2.033,0,0,0,1.133-.459c2.718-1.833,5.46-3.63,8.175-5.465a1.414,1.414,0,0,0-.009-2.311q-4.234-2.85-8.5-5.667a1.419,1.419,0,0,0-2.2.969c-.055,1.33,0,2.664-.021,3.994a36.833,36.833,0,0,1,5.667-73.228V16m1.686,77.922c-1.5,1.013-3.016,2-4.52,3.014V90.908C262.41,91.914,263.924,92.909,265.424,93.922Z" transform="translate(-224.072 -16)"/>
        <path id="Path_187734" data-name="Path 187734" d="M203.557,20.14c-.947-.253-1.909-.443-2.871-.63-.166.928-.329,1.858-.5,2.786.894.163,1.78.374,2.665.577C203.086,21.961,203.323,21.051,203.557,20.14Z" transform="translate(-154.007 -18.888)" fill="#95e17a"/>
        <path id="Path_187735" data-name="Path 187735" d="M172.563,28.759c-.9-.336-1.8-.7-2.715-1.009-.308.894-.607,1.79-.909,2.687.861.289,1.7.623,2.545.963C171.839,30.518,172.266,29.663,172.563,28.759Z" transform="translate(-117.48 -25.669)" fill="#95e17a"/>
        <path id="Path_187736" data-name="Path 187736" d="M143.174,42.086q-1.259-.752-2.559-1.436-.648,1.259-1.295,2.518c.8.427,1.6.868,2.373,1.337C142.191,43.7,142.681,42.894,143.174,42.086Z" transform="translate(-82.845 -36.285)" fill="#95e17a"/>
        <path id="Path_187737" data-name="Path 187737" d="M114.064,57.94c-.554.767-1.107,1.532-1.654,2.3.733.533,1.454,1.086,2.15,1.668.615-.719,1.213-1.45,1.822-2.175C115.626,59.114,114.856,58.514,114.064,57.94Z" transform="translate(-51.288 -50.513)" fill="#95e17a"/>
        <path id="Path_187738" data-name="Path 187738" d="M92.615,81.316c-.653-.726-1.335-1.429-2.03-2.116-.659.668-1.3,1.349-1.966,2.012.62.669,1.277,1.3,1.877,1.991Q91.56,82.262,92.615,81.316Z" transform="translate(-23.307 -68.008)" fill="#95e17a"/>
        <path id="Path_187739" data-name="Path 187739" d="M140.082,96.163a25.269,25.269,0,0,0-7.449.345,1.4,1.4,0,0,0-1.139,1.116c-.1.687.044,1.39-.085,2.074a1.034,1.034,0,0,1-.783.655,21.48,21.48,0,0,0-2.979,1.224c-.374.181-.8.436-1.22.218-.639-.406-1.038-1.1-1.675-1.5a1.4,1.4,0,0,0-1.479.089,25.589,25.589,0,0,0-6.623,6.483,1.764,1.764,0,0,0-.473,1.666c.315.792,1.151,1.2,1.6,1.9.227.418-.034.855-.214,1.231a21.573,21.573,0,0,0-1.224,2.979,1.03,1.03,0,0,1-.666.786c-.689.119-1.4-.027-2.09.087a1.4,1.4,0,0,0-1.089,1.137,25.242,25.242,0,0,0,0,9.753,1.483,1.483,0,0,0,1.652,1.183c.661.074,1.562-.248,2.01.4.441,1.052.76,2.157,1.291,3.172.2.452.586.946.333,1.456-.391.591-1.008.986-1.426,1.557a1.4,1.4,0,0,0,.009,1.59,25.49,25.49,0,0,0,6.175,6.4c.542.381,1.13.93,1.852.737.875-.246,1.282-1.178,2.024-1.635.418-.23.855.034,1.231.214a24.087,24.087,0,0,0,3.128,1.279.89.89,0,0,1,.668.754c.066.645-.035,1.3.057,1.939a1.406,1.406,0,0,0,1.133,1.094,25.322,25.322,0,0,0,9.769,0,1.4,1.4,0,0,0,1.13-1.1c.106-.691-.039-1.4.087-2.084a1.039,1.039,0,0,1,.786-.661,21.244,21.244,0,0,0,2.977-1.224c.379-.181.82-.443,1.238-.209.737.457,1.146,1.38,2.014,1.629a1.977,1.977,0,0,0,1.654-.584,25.343,25.343,0,0,0,6.436-6.643,1.51,1.51,0,0,0-.464-1.966c-.427-.5-1.264-.935-1.054-1.707.437-1.017.965-2,1.3-3.058.193-.475.266-1.148.843-1.309.685-.12,1.388.021,2.076-.085a1.4,1.4,0,0,0,1.109-1.13,25.1,25.1,0,0,0,0-9.772,1.39,1.39,0,0,0-1.117-1.135c-.678-.1-1.369.032-2.045-.078-.545-.129-.652-.738-.818-1.185a31.543,31.543,0,0,0-1.346-3.182c-.218-.777.63-1.218,1.059-1.72a1.511,1.511,0,0,0,.464-1.948,25.159,25.159,0,0,0-6.963-7.009,1.387,1.387,0,0,0-1.6-.021c-.57.42-.965,1.04-1.56,1.429-.514.253-1.013-.143-1.472-.338-1.008-.533-2.107-.848-3.154-1.286-.611-.4-.361-1.231-.407-1.842a1.6,1.6,0,0,0-.815-1.705,14.639,14.639,0,0,0-2.674-.46m.636,2.929a4,4,0,0,0,1.164,3.016c.841.854,2.083,1.009,3.131,1.491,1.027.4,1.973,1.116,3.12,1.112a3.982,3.982,0,0,0,2.982-1.318,23,23,0,0,1,4.535,4.532,3.972,3.972,0,0,0-1.318,2.988c0,1.192.762,2.166,1.162,3.241a10.382,10.382,0,0,0,1.275,2.825,3.93,3.93,0,0,0,3.181,1.342,22.562,22.562,0,0,1,0,6.414,3.946,3.946,0,0,0-3.014,1.158c-.854.838-1.009,2.076-1.489,3.122-.4,1.034-1.123,1.985-1.116,3.14a3.988,3.988,0,0,0,1.318,2.973,23.092,23.092,0,0,1-4.532,4.534,4,4,0,0,0-2.811-1.319c-1.263-.073-2.3.744-3.425,1.167a10.384,10.384,0,0,0-2.821,1.273,3.964,3.964,0,0,0-1.342,3.181,22.709,22.709,0,0,1-6.407,0,3.846,3.846,0,0,0-2.478-3.836,26.377,26.377,0,0,1-3.5-1.454,3.836,3.836,0,0,0-4.419.988,23.109,23.109,0,0,1-4.535-4.534,3.982,3.982,0,0,0,1.321-2.973c.009-1.155-.719-2.106-1.116-3.142-.469-1.011-.62-2.2-1.411-3.037a3.942,3.942,0,0,0-3.092-1.24,22.7,22.7,0,0,1,0-6.416,3.841,3.841,0,0,0,3.831-2.467,26.231,26.231,0,0,1,1.459-3.514,3.834,3.834,0,0,0-.992-4.415,23.091,23.091,0,0,1,4.534-4.532,4,4,0,0,0,2.977,1.318c1.155.009,2.107-.717,3.143-1.117,1.008-.466,2.191-.618,3.027-1.4a3.954,3.954,0,0,0,1.252-3.1A22.577,22.577,0,0,1,140.718,99.092Z" transform="translate(-97.849 -81.859)"/>
        <path id="Path_187740" data-name="Path 187740" d="M72.4,106.339c-.545-.811-1.109-1.61-1.7-2.389q-1.129.855-2.251,1.721.821,1.086,1.576,2.223C70.818,107.375,71.611,106.861,72.4,106.339Z" transform="translate(0.481 -88.374)" fill="#95e17a"/>
        <path id="Path_187741" data-name="Path 187741" d="M56.2,134.3c-.416-.887-.855-1.764-1.328-2.621-.825.457-1.656.907-2.476,1.374.437.8.843,1.61,1.231,2.43C54.486,135.084,55.347,134.7,56.2,134.3Z" transform="translate(19.518 -111.193)" fill="#95e17a"/>
        <path id="Path_187742" data-name="Path 187742" d="M182.344,148.153A16.289,16.289,0,1,0,194.5,156.33a16.29,16.29,0,0,0-12.161-8.177m-.195,2.83a13.451,13.451,0,0,1,4.753,25.054,13.452,13.452,0,1,1-4.753-25.054Z" transform="translate(-140.643 -124.644)"/>
        <path id="Path_187743" data-name="Path 187743" d="M43.479,161.82q-1.326.489-2.649.983c.3.855.6,1.709.839,2.58.919-.228,1.821-.521,2.733-.77C44.126,163.672,43.819,162.739,43.479,161.82Z" transform="translate(33.369 -135.996)" fill="#95e17a"/>
        <path id="Path_187744" data-name="Path 187744" d="M37.266,196.585c-.135-.967-.3-1.929-.5-2.885-.926.181-1.847.383-2.77.579.175.891.333,1.787.46,2.687C35.394,196.831,36.331,196.714,37.266,196.585Z" transform="translate(41.715 -162.23)" fill="#95e17a"/>
        <path id="Path_187745" data-name="Path 187745" d="M34.832,226.54q-1.413.082-2.826.166c.048.91.067,1.822.064,2.734.944.005,1.888.025,2.832.027C34.906,228.492,34.887,227.514,34.832,226.54Z" transform="translate(44.433 -189.254)" fill="#95e17a"/>
        <path id="Path_187746" data-name="Path 187746" d="M36.018,258.546c-.94-.092-1.883-.172-2.825-.246-.081.9-.195,1.8-.333,2.7.93.166,1.861.315,2.8.46C35.809,260.491,35.926,259.52,36.018,258.546Z" transform="translate(43.165 -215.39)" fill="#95e17a"/>
        <path id="Path_187747" data-name="Path 187747" d="M41.649,289.322q-1.379-.327-2.756-.662c-.22.88-.462,1.757-.733,2.623.893.3,1.792.577,2.688.866C41.158,291.219,41.41,290.272,41.649,289.322Z" transform="translate(36.595 -240.373)" fill="#95e17a"/>
        <path id="Path_187748" data-name="Path 187748" d="M52.012,319.021c-.877-.351-1.755-.7-2.625-1.061q-.526,1.259-1.117,2.488,1.267.63,2.538,1.254C51.24,320.822,51.638,319.926,52.012,319.021Z" transform="translate(24.442 -264.484)" fill="#95e17a"/>
        <path id="Path_187749" data-name="Path 187749" d="M66.893,346.974c-.824-.455-1.62-.953-2.433-1.424-.468.781-.967,1.543-1.47,2.3.779.53,1.544,1.08,2.325,1.608C65.864,348.644,66.413,347.831,66.893,346.974Z" transform="translate(6.954 -287.188)" fill="#95e17a"/>
        <path id="Path_187750" data-name="Path 187750" d="M85.854,372.645c-.74-.59-1.459-1.21-2.221-1.775-.56.71-1.169,1.378-1.773,2.049.687.645,1.376,1.288,2.06,1.937C84.589,374.141,85.232,373.4,85.854,372.645Z" transform="translate(-15.348 -308.024)" fill="#95e17a"/>
        <path id="Path_187751" data-name="Path 187751" d="M108.558,395.34c-.634-.7-1.273-1.394-1.909-2.09q-1.02.909-2.079,1.769.874,1.113,1.755,2.223C107.088,396.629,107.83,395.993,108.558,395.34Z" transform="translate(-42.075 -326.44)" fill="#95e17a"/>
        <path id="Path_187752" data-name="Path 187752" d="M134.461,414.69q-.789-1.179-1.592-2.35c-.754.5-1.53.981-2.309,1.449q.707,1.225,1.411,2.453C132.818,415.753,133.641,415.221,134.461,414.69Z" transform="translate(-72.581 -342.15)" fill="#95e17a"/>
        <path id="Path_187753" data-name="Path 187753" d="M161.8,427.67c-.82.39-1.656.742-2.5,1.089.344.878.684,1.76,1.032,2.639.9-.374,1.806-.758,2.694-1.172C162.617,429.374,162.21,428.52,161.8,427.67Z" transform="translate(-106.235 -354.765)" fill="#95e17a"/>
        <path id="Path_187754" data-name="Path 187754" d="M193.672,441.573q-.412-1.357-.832-2.713-1.307.383-2.63.707.311,1.379.627,2.761C191.79,442.1,192.735,441.853,193.672,441.573Z" transform="translate(-142.356 -363.973)" fill="#95e17a"/>
      </g>
    </g>
  </g>
</svg>
