<svg xmlns="http://www.w3.org/2000/svg" xmlns:xlink="http://www.w3.org/1999/xlink" width="189.999" height="100" viewBox="0 0 189.999 100">
  <defs>
    <linearGradient id="linear-gradient" x1="0.5" x2="0.5" y2="1" gradientUnits="objectBoundingBox">
      <stop offset="0" stop-color="#ffd341"/>
      <stop offset="1" stop-color="#ffbd31"/>
    </linearGradient>
    <linearGradient id="linear-gradient-2" x1="0.5" x2="0.5" y2="1" gradientUnits="objectBoundingBox">
      <stop offset="0" stop-color="#95e17a"/>
      <stop offset="1" stop-color="#3aa255"/>
    </linearGradient>
    <linearGradient id="linear-gradient-5" x1="0.5" x2="0.5" y2="1" gradientUnits="objectBoundingBox">
      <stop offset="0" stop-color="#a042bf"/>
      <stop offset="1" stop-color="#8126b2"/>
    </linearGradient>
  </defs>
  <g id="t3-ic3" transform="translate(-179.833 -3482)">
    <g id="Group_118574" data-name="Group 118574" transform="translate(0)">
      <path id="Path_179383" data-name="Path 179383" d="M22.289,24.943C-1.96,45.272-7.5,10.168,11.007,2.292S42.46,8.032,22.289,24.943" transform="translate(179.833 3482)" fill="url(#linear-gradient)"/>
      <path id="Path_179384" data-name="Path 179384" d="M41.724,25.739c-5.6,6.076-17.01.9-9.594-7.064,8.854-9.515,15.191.988,9.594,7.064" transform="translate(181.332 3482.749)" fill="url(#linear-gradient-2)"/>
      <path id="Path_179385" data-name="Path 179385" d="M167.906,75.089c25.308-21.217,31.087,15.42,11.775,23.641s-32.827-5.99-11.775-23.641" transform="translate(178.664 3480.878)" fill="url(#linear-gradient-2)"/>
      <path id="Path_179386" data-name="Path 179386" d="M141.571,78.432c3.432-6.762,14.8-5.034,10.236,3.852-5.455,10.613-13.669,2.91-10.236-3.852" transform="translate(180.575 3483.81)" fill="url(#linear-gradient)"/>
      <path id="Path_179387" data-name="Path 179387" d="M181.455,65.306c6.068-.231,8.621-9.082.626-8.736-9.547.412-6.694,8.967-.626,8.736" transform="translate(178.462 3477.772)" fill="url(#linear-gradient-5)"/>
    </g>
    <g id="Group_118573" data-name="Group 118573" transform="translate(-313.167 3387)">
      <rect id="Rectangle_5192" data-name="Rectangle 5192" width="85" height="85" transform="translate(543 103)" fill="none"/>
      <g id="Group_57729" data-name="Group 57729" transform="translate(547.304 103)">
        <g id="Group_57703" data-name="Group 57703" transform="translate(1.243 49.257)">
          <circle id="Ellipse_4137" data-name="Ellipse 4137" cx="8.637" cy="8.637" r="8.637" transform="translate(0 0)" fill="#ffd341"/>
        </g>
        <g id="Group_57704" data-name="Group 57704" transform="translate(66.354 49.257)">
          <circle id="Ellipse_4138" data-name="Ellipse 4138" cx="8.637" cy="8.637" r="8.637" transform="translate(0 0)" fill="#ffd341"/>
        </g>
        <g id="Group_57705" data-name="Group 57705" transform="translate(30.601 23.081)">
          <path id="Path_102584" data-name="Path 102584" d="M-890.126,3185.433l-9.345-9.344a2.49,2.49,0,0,1,0-3.522l9.345-9.344a2.49,2.49,0,0,1,3.522,0l9.345,9.344a2.49,2.49,0,0,1,0,3.522l-9.345,9.344a2.489,2.489,0,0,1-3.522,0Z" transform="translate(900.201 -3162.493)" fill="#ffd341"/>
        </g>
        <g id="Group_57706" data-name="Group 57706" transform="translate(39.242 31.038)">
          <path id="Path_102585" data-name="Path 102585" d="M-833.849,3212.539l-2.12-2.12a2.482,2.482,0,0,1-.695,2.152l-11.056,11.056a2.476,2.476,0,0,1-.432.343l1.436,1.435a2.486,2.486,0,0,0,3.517,0l9.349-9.349a2.487,2.487,0,0,0,0-3.517Z" transform="translate(848.151 -3210.419)" fill="#fea521"/>
        </g>
        <g id="Group_57707" data-name="Group 57707" transform="translate(1.243 28.409)">
          <path id="Path_102586" data-name="Path 102586" d="M-1062.251,3208.873h-12.293a2.49,2.49,0,0,1-2.49-2.49v-9.3a2.49,2.49,0,0,1,2.49-2.49h12.293a2.49,2.49,0,0,1,2.49,2.49v9.3A2.49,2.49,0,0,1-1062.251,3208.873Z" transform="translate(1077.035 -3194.587)" fill="#bc7ad2"/>
        </g>
        <g id="Group_57708" data-name="Group 57708" transform="translate(66.354 28.409)">
          <path id="Path_102587" data-name="Path 102587" d="M-670.056,3208.873h-12.293a2.49,2.49,0,0,1-2.49-2.49v-9.3a2.49,2.49,0,0,1,2.49-2.49h12.293a2.49,2.49,0,0,1,2.49,2.49v9.3A2.49,2.49,0,0,1-670.056,3208.873Z" transform="translate(684.839 -3194.587)" fill="#bc7ad2"/>
        </g>
        <g id="Group_57709" data-name="Group 57709" transform="translate(30.478 71.149)">
          <path id="Path_102588" data-name="Path 102588" d="M-879.514,3464.638h-18.935a2.49,2.49,0,0,1-2.49-2.49v-7.627a2.49,2.49,0,0,1,2.49-2.49h18.935a2.49,2.49,0,0,1,2.49,2.49v7.627A2.49,2.49,0,0,1-879.514,3464.638Z" transform="translate(900.939 -3452.03)" fill="#ffd341"/>
        </g>
        <g id="Group_57710" data-name="Group 57710" transform="translate(30.478 53.199)">
          <path id="Path_102589" data-name="Path 102589" d="M-879.514,3356.515h-18.935a2.49,2.49,0,0,1-2.49-2.49V3346.4a2.49,2.49,0,0,1,2.49-2.49h18.935a2.491,2.491,0,0,1,2.49,2.49v7.627a2.49,2.49,0,0,1-2.49,2.49Z" transform="translate(900.939 -3343.907)" fill="#95e17a"/>
        </g>
        <g id="Group_57711" data-name="Group 57711" transform="translate(24.691 1.244)">
          <ellipse id="Ellipse_4139" data-name="Ellipse 4139" cx="17.745" cy="8.074" rx="17.745" ry="8.074" transform="translate(0)" fill="#95e17a"/>
        </g>
        <g id="Group_57712" data-name="Group 57712" transform="translate(2.349 50.363)">
          <path id="Path_102590" data-name="Path 102590" d="M-1058.615,3326.828a8.6,8.6,0,0,1,1.106,4.227,8.637,8.637,0,0,1-8.637,8.637,8.594,8.594,0,0,1-4.227-1.106,8.633,8.633,0,0,0,7.531,4.41,8.637,8.637,0,0,0,8.637-8.637A8.631,8.631,0,0,0-1058.615,3326.828Z" transform="translate(1070.373 -3326.828)" fill="#fea521"/>
        </g>
        <g id="Group_57713" data-name="Group 57713" transform="translate(67.46 50.363)">
          <path id="Path_102591" data-name="Path 102591" d="M-666.42,3326.828a8.6,8.6,0,0,1,1.106,4.227,8.637,8.637,0,0,1-8.637,8.637,8.6,8.6,0,0,1-4.227-1.106,8.633,8.633,0,0,0,7.531,4.41,8.637,8.637,0,0,0,8.637-8.637A8.632,8.632,0,0,0-666.42,3326.828Z" transform="translate(678.178 -3326.828)" fill="#fea521"/>
        </g>
        <g id="Group_57714" data-name="Group 57714" transform="translate(1.243 28.409)">
          <path id="Path_102592" data-name="Path 102592" d="M-1062.248,3194.587h-.817v8.5a2.487,2.487,0,0,1-2.487,2.487h-11.484v.816a2.487,2.487,0,0,0,2.487,2.487h12.3a2.487,2.487,0,0,0,2.487-2.487v-9.312A2.487,2.487,0,0,0-1062.248,3194.587Z" transform="translate(1077.035 -3194.587)" fill="#925fa3"/>
        </g>
        <g id="Group_57715" data-name="Group 57715" transform="translate(66.354 28.409)">
          <path id="Path_102593" data-name="Path 102593" d="M-670.053,3194.587h-.817v8.5a2.487,2.487,0,0,1-2.487,2.487H-684.84v.816a2.487,2.487,0,0,0,2.487,2.487h12.3a2.487,2.487,0,0,0,2.487-2.487v-9.312A2.487,2.487,0,0,0-670.053,3194.587Z" transform="translate(684.84 -3194.587)" fill="#925fa3"/>
        </g>
        <g id="Group_57716" data-name="Group 57716" transform="translate(30.478 71.149)">
          <path id="Path_102594" data-name="Path 102594" d="M-879.511,3452.031h-.817v6.817a2.487,2.487,0,0,1-2.487,2.487h-18.125v.817a2.487,2.487,0,0,0,2.487,2.487h18.941a2.487,2.487,0,0,0,2.487-2.487v-7.634A2.486,2.486,0,0,0-879.511,3452.031Z" transform="translate(900.939 -3452.031)" fill="#fea521"/>
        </g>
        <g id="Group_57717" data-name="Group 57717" transform="translate(30.478 53.199)">
          <path id="Path_102595" data-name="Path 102595" d="M-879.511,3343.907h-.817v6.818a2.487,2.487,0,0,1-2.487,2.487h-18.125v.816a2.487,2.487,0,0,0,2.487,2.487h18.941a2.487,2.487,0,0,0,2.487-2.487v-7.634A2.487,2.487,0,0,0-879.511,3343.907Z" transform="translate(900.939 -3343.907)" fill="#62c065"/>
        </g>
        <g id="Group_57718" data-name="Group 57718" transform="translate(25.041 4.41)">
          <path id="Path_102596" data-name="Path 102596" d="M-902.2,3050.026a3.934,3.934,0,0,1,.351,1.6c0,4.459-7.945,8.074-17.745,8.074-5.743,0-10.847-1.242-14.091-3.167,1.635,3.691,8.8,6.47,17.394,6.47,9.8,0,17.745-3.615,17.745-8.074C-898.548,3053.087-899.911,3051.386-902.2,3050.026Z" transform="translate(933.687 -3050.026)" fill="#62c065"/>
        </g>
        <path id="Path_102597" data-name="Path 102597" d="M-1003.383,3067.4a3.734,3.734,0,0,0,3.73-3.73v-9.312a3.735,3.735,0,0,0-3.73-3.73h-12.3a3.735,3.735,0,0,0-3.73,3.73v2.776h-9.811a3.716,3.716,0,0,0-.877-1.394l-4.147-4.147a1.244,1.244,0,0,0-1.759,0,1.244,1.244,0,0,0,0,1.759l4.147,4.146a1.236,1.236,0,0,1,.364.879,1.234,1.234,0,0,1-.364.879l-9.349,9.35a1.233,1.233,0,0,1-.879.365,1.234,1.234,0,0,1-.879-.365l-9.35-9.35a1.235,1.235,0,0,1-.364-.879,1.234,1.234,0,0,1,.364-.879l9.349-9.35a1.235,1.235,0,0,1,.879-.364,1.235,1.235,0,0,1,.879.364l.96.959a1.244,1.244,0,0,0,1.759,0,1.243,1.243,0,0,0,0-1.758l-.96-.96a3.714,3.714,0,0,0-1.394-.876v-3.439a31.544,31.544,0,0,0,11.819-2.455c3.821-1.739,5.926-4.168,5.926-6.841s-2.1-5.1-5.926-6.841a32.411,32.411,0,0,0-13.062-2.477,36.371,36.371,0,0,0-9.489,1.2,1.243,1.243,0,0,0-.87,1.528,1.243,1.243,0,0,0,1.529.87,33.876,33.876,0,0,1,8.83-1.113c9.724,0,16.5,3.6,16.5,6.831s-6.777,6.83-16.5,6.83-16.5-3.6-16.5-6.83c0-1.292,1.055-2.639,2.97-3.794a1.243,1.243,0,0,0,.423-1.707,1.243,1.243,0,0,0-1.707-.423c-2.73,1.646-4.173,3.694-4.173,5.924,0,2.672,2.1,5.1,5.926,6.841a31.524,31.524,0,0,0,11.819,2.455v3.439a3.719,3.719,0,0,0-1.394.876l-9.349,9.349a3.717,3.717,0,0,0-.877,1.395h-9.811v-2.776a3.735,3.735,0,0,0-3.73-3.73h-12.3a3.735,3.735,0,0,0-3.73,3.73v9.312a3.734,3.734,0,0,0,3.73,3.73h4.907v4.157a9.893,9.893,0,0,0-8.637,9.8,9.845,9.845,0,0,0,.63,3.479,1.243,1.243,0,0,0,1.6.726,1.243,1.243,0,0,0,.726-1.6,7.367,7.367,0,0,1-.471-2.6,7.4,7.4,0,0,1,7.393-7.394,7.4,7.4,0,0,1,7.394,7.394,7.4,7.4,0,0,1-7.394,7.394,7.363,7.363,0,0,1-4.021-1.188,1.243,1.243,0,0,0-1.72.366,1.243,1.243,0,0,0,.365,1.72,9.844,9.844,0,0,0,5.376,1.59,9.892,9.892,0,0,0,9.88-9.88,9.893,9.893,0,0,0-8.637-9.8V3067.4h4.907a3.734,3.734,0,0,0,3.73-3.73v-4.049h9.811a3.713,3.713,0,0,0,.877,1.395l9.349,9.35a3.715,3.715,0,0,0,1.394.876v4.175h-8.227a3.735,3.735,0,0,0-3.73,3.73v7.634a3.735,3.735,0,0,0,3.73,3.73h8.227v2.856h-8.227a3.735,3.735,0,0,0-3.73,3.73v7.634a3.735,3.735,0,0,0,3.73,3.73h18.942a3.734,3.734,0,0,0,3.73-3.73V3097.1a3.734,3.734,0,0,0-3.73-3.73h-8.227v-2.856h8.227a3.734,3.734,0,0,0,3.73-3.73v-7.634a3.735,3.735,0,0,0-3.73-3.73h-8.227v-4.175a3.718,3.718,0,0,0,1.394-.876l9.349-9.349a3.724,3.724,0,0,0,.877-1.395h9.811v4.048a3.734,3.734,0,0,0,3.73,3.73h4.907v4.157a9.893,9.893,0,0,0-8.637,9.8,9.891,9.891,0,0,0,9.88,9.88,9.891,9.891,0,0,0,9.88-9.88,9.893,9.893,0,0,0-8.637-9.8V3067.4Zm-63.867-3.73a1.245,1.245,0,0,1-1.243,1.243h-12.3a1.245,1.245,0,0,1-1.244-1.243v-9.312a1.245,1.245,0,0,1,1.244-1.244h12.3a1.245,1.245,0,0,1,1.243,1.244Zm35.876,33.427v7.634a1.245,1.245,0,0,1-1.243,1.244h-18.941a1.245,1.245,0,0,1-1.243-1.244V3097.1a1.245,1.245,0,0,1,1.243-1.243h18.942a1.245,1.245,0,0,1,1.243,1.243Zm0-17.95v7.634a1.245,1.245,0,0,1-1.243,1.244h-18.941a1.245,1.245,0,0,1-1.243-1.244v-7.634a1.245,1.245,0,0,1,1.243-1.244h18.942a1.245,1.245,0,0,1,1.243,1.244Zm29.235,2.208a7.4,7.4,0,0,1-7.394,7.394,7.4,7.4,0,0,1-7.393-7.394,7.4,7.4,0,0,1,7.393-7.394A7.4,7.4,0,0,1-1002.14,3081.356Zm-14.787-17.686v-9.312a1.245,1.245,0,0,1,1.243-1.244h12.3a1.245,1.245,0,0,1,1.243,1.244v9.312a1.245,1.245,0,0,1-1.243,1.243h-12.3A1.245,1.245,0,0,1-1016.927,3063.67Z" transform="translate(1084.524 -3023.462)"/>
      </g>
    </g>
  </g>
</svg>
