<svg id="t3-ic-check" xmlns="http://www.w3.org/2000/svg" width="62.55" height="55" viewBox="0 0 62.55 55">
  <g id="_1e0478ff" data-name="#1e0478ff" transform="translate(0 0)">
    <path id="Path_183943" data-name="Path 183943" d="M19.024,32.234a27.668,27.668,0,0,1,14.616-.662A27.2,27.2,0,0,1,44,36.384a1.667,1.667,0,0,1-.415,2.9,1.726,1.726,0,0,1-1.688-.3,23.9,23.9,0,0,0-10.073-4.37A24.151,24.151,0,1,0,51.628,57.055a2.4,2.4,0,0,1,.108-1.158,1.668,1.668,0,0,1,3.2.525A27.5,27.5,0,1,1,0,58.836v-.884A27.582,27.582,0,0,1,19.024,32.234Z" transform="translate(0 -30.892)" fill="#fe7f05"/>
    <path id="Path_183944" data-name="Path 183944" d="M110.321,46.261a6.518,6.518,0,0,1,7.442,6.3v.291a6.626,6.626,0,0,1-1.977,4.539Q100.73,72.445,85.671,87.5a4.333,4.333,0,0,1-6.207.02Q72.109,80.162,64.751,72.8A6.522,6.522,0,1,1,74.27,63.89q4.141,4.141,8.287,8.282Q94.6,60.15,106.631,48.108a6.535,6.535,0,0,1,3.691-1.847m.028,3.355-.01.1a2.516,2.516,0,0,0-1.345.762Q96.867,62.6,84.745,74.725a3.108,3.108,0,0,1-1.285.8l-.227-.024-.028.1a5,5,0,0,1-1.39.006l-.013-.1-.216,0a5.376,5.376,0,0,1-1.929-1.505q-4-4-8-8a3.191,3.191,0,0,0-2.872-.866l-.23-.026-.029.1-.1.024-.215.023-.009.094a2.735,2.735,0,0,0-1.743,1.854l-.1.01c0,.054-.01.162-.013.217a3.251,3.251,0,0,0,.012,1.683c0,.056-.009.169-.012.225l.105.021a3.368,3.368,0,0,0,.961,1.37q7.24,7.24,14.482,14.479a.966.966,0,0,0,1.268.042c.257-.1.41-.337.608-.513q14.686-14.691,29.376-29.379a2.337,2.337,0,0,0,.566-.674l.191-.259.026-.039a2.322,2.322,0,0,0,.3-.643l.1-.02-.01-.23a3.507,3.507,0,0,0,0-1.6c0-.057.009-.173.011-.231l-.1-.022a3.07,3.07,0,0,0-1.277-1.619l-.042-.027c-.246-.116-.506-.33-.779-.3l-.013-.1-.216,0a3.259,3.259,0,0,0-1.332.006Z" transform="translate(-55.214 -44.324)" fill="#fe7f05"/>
  </g>
  <g id="_6b9dbde5" data-name="#6b9dbde5" transform="translate(11.133 5.281)">
    <path id="Path_183945" data-name="Path 183945" d="M451.24,74.175l.219,0-.228.1Z" transform="translate(-407.238 -74.164)" fill="#6b9dbd" opacity="0.9"/>
    <path id="Path_183946" data-name="Path 183946" d="M464,74.12l.216,0,.013.1Z" transform="translate(-418.448 -74.12)" fill="#6b9dbd" opacity="0.9"/>
    <path id="Path_183947" data-name="Path 183947" d="M106.319,202.123l.215-.023-.224.117Z" transform="translate(-104.455 -186.465)" fill="#6b9dbd" opacity="0.9"/>
    <path id="Path_183948" data-name="Path 183948" d="M91.143,218.25l.1-.01c-.028.057-.083.171-.111.227C91.134,218.412,91.14,218.3,91.143,218.25Z" transform="translate(-91.13 -200.633)" fill="#6b9dbd" opacity="0.9"/>
    <path id="Path_183949" data-name="Path 183949" d="M215.85,286.19l.216,0,.013.1Z" transform="translate(-200.613 -260.282)" fill="#6b9dbd" opacity="0.9"/>
  </g>
  <g id="_94e7efff" data-name="#94e7efff" transform="translate(11.028 5.215)">
    <path id="Path_183950" data-name="Path 183950" d="M134.6,73.654a3.26,3.26,0,0,1,1.332-.006l.23.1c.274-.028.534.186.779.3.01.007.031.02.042.027a3.07,3.07,0,0,1,1.277,1.619l.092.253a3.508,3.508,0,0,1,0,1.6l-.094.249a2.322,2.322,0,0,1-.3.643l-.026.039-.191.259q-14.755,14.752-29.508,29.508c-.348.353-.71.691-1.042,1.058a.966.966,0,0,1-1.268-.042q-7.242-7.238-14.482-14.479a3.368,3.368,0,0,1-.961-1.369l-.093-.246a3.251,3.251,0,0,1-.012-1.683c.028-.056.083-.17.111-.227A2.735,2.735,0,0,1,92.23,89.4l.224-.117.1-.024.259-.075a3.191,3.191,0,0,1,2.872.866q4,4,8,8a5.377,5.377,0,0,0,1.929,1.505l.23.1a5,5,0,0,0,1.39-.006l.255-.078a3.108,3.108,0,0,0,1.285-.8q12.126-12.126,24.25-24.25a2.516,2.516,0,0,1,1.345-.762Z" transform="translate(-90.271 -73.582)" fill="#fff"/>
  </g>
  <g id="_465698e4" data-name="#465698e4" transform="translate(11.133 5.683)">
    <path id="Path_183951" data-name="Path 183951" d="M472.26,77.41c.01.007.031.02.042.027C472.291,77.43,472.27,77.417,472.26,77.41Z" transform="translate(-425.698 -77.41)" fill="#465698" opacity="0.89"/>
    <path id="Path_183952" data-name="Path 183952" d="M483.05,90.88l.1.022c0,.057-.008.173-.011.231Z" transform="translate(-435.17 -89.234)" fill="#465698" opacity="0.89"/>
    <path id="Path_183953" data-name="Path 183953" d="M483.04,106.269c.023-.062.071-.187.094-.249,0,.057.007.172.01.23Z" transform="translate(-435.161 -102.525)" fill="#465698" opacity="0.89"/>
    <path id="Path_183954" data-name="Path 183954" d="M480.41,113.359l.026-.039Z" transform="translate(-432.853 -108.933)" fill="#465698" opacity="0.89"/>
    <path id="Path_183955" data-name="Path 183955" d="M229.822,145.268q14.753-14.755,29.508-29.508a2.336,2.336,0,0,1-.566.674q-14.689,14.689-29.376,29.379c-.2.176-.352.418-.608.513C229.112,145.96,229.474,145.621,229.822,145.268Z" transform="translate(-211.964 -111.075)" fill="#465698" opacity="0.89"/>
    <path id="Path_183956" data-name="Path 183956" d="M108.949,201.08l.23.026-.259.075Z" transform="translate(-106.747 -185.972)" fill="#465698" opacity="0.89"/>
    <path id="Path_183957" data-name="Path 183957" d="M91.142,233.88l.093.246-.105-.021C91.134,234.049,91.139,233.936,91.142,233.88Z" transform="translate(-91.13 -214.764)" fill="#465698" opacity="0.89"/>
    <path id="Path_183958" data-name="Path 183958" d="M229.138,286.12l.227.024-.255.078Z" transform="translate(-212.253 -260.622)" fill="#465698" opacity="0.89"/>
  </g>
</svg>
