<svg xmlns="http://www.w3.org/2000/svg" width="149.127" height="35" viewBox="0 0 149.127 35">
  <g id="txt-w" transform="translate(-406.413 -3928)">
    <path id="Path_188158" data-name="Path 188158" d="M5.2,0H1.439V-15.641H5.2Zm5.779-11.623.118,1.364a3.942,3.942,0,0,1,3.319-1.579,3.316,3.316,0,0,1,2.712,1.085,5.165,5.165,0,0,1,.929,3.266V0H14.427V-7.337a1.961,1.961,0,0,0-.354-1.294,1.64,1.64,0,0,0-1.289-.414,1.726,1.726,0,0,0-1.579.838V0H7.584V-11.623Zm14,9.045a1.61,1.61,0,0,0,1.182-.414,1.517,1.517,0,0,0,.408-1.155H29.96A4.018,4.018,0,0,1,28.59-1.01,5.1,5.1,0,0,1,25.062.215a5.158,5.158,0,0,1-4-1.59,6.264,6.264,0,0,1-1.461-4.4v-.15a7.08,7.08,0,0,1,.65-3.11,4.732,4.732,0,0,1,1.875-2.073,5.589,5.589,0,0,1,2.9-.725,5.03,5.03,0,0,1,3.6,1.257A4.458,4.458,0,0,1,29.96-7.176H26.565a1.987,1.987,0,0,0-.44-1.386,1.52,1.52,0,0,0-1.182-.483q-1.407,0-1.644,1.794a12.658,12.658,0,0,0-.075,1.568,4.972,4.972,0,0,0,.419,2.428A1.45,1.45,0,0,0,24.976-2.578Zm6.059-3.341a6.86,6.86,0,0,1,.677-3.1,4.84,4.84,0,0,1,1.944-2.089,5.856,5.856,0,0,1,2.976-.73,5.344,5.344,0,0,1,4.114,1.617,6.2,6.2,0,0,1,1.5,4.4v.129A6.019,6.019,0,0,1,40.74-1.38a5.359,5.359,0,0,1-4.087,1.6,5.42,5.42,0,0,1-3.985-1.488,5.819,5.819,0,0,1-1.622-4.034Zm3.62.226a4.325,4.325,0,0,0,.5,2.363,1.682,1.682,0,0,0,1.493.752q1.934,0,1.977-2.976v-.365q0-3.126-2-3.126-1.815,0-1.966,2.7ZM50.875-8.347l-1.192-.086a2.142,2.142,0,0,0-2.191,1.074V0h-3.62V-11.623h3.395l.118,1.493a2.8,2.8,0,0,1,2.546-1.708,3.53,3.53,0,0,1,1.01.129Zm8.336,0-1.192-.086a2.142,2.142,0,0,0-2.191,1.074V0h-3.62V-11.623H55.6l.118,1.493a2.8,2.8,0,0,1,2.546-1.708,3.53,3.53,0,0,1,1.01.129ZM65.936.215a5.975,5.975,0,0,1-4.329-1.6,5.509,5.509,0,0,1-1.654-4.152v-.3a7.138,7.138,0,0,1,.661-3.147,4.834,4.834,0,0,1,1.928-2.111,5.821,5.821,0,0,1,3.008-.747,5.031,5.031,0,0,1,3.867,1.52A5.973,5.973,0,0,1,70.834-6.08v1.407h-7.2a2.609,2.609,0,0,0,.849,1.536,2.525,2.525,0,0,0,1.7.559,3.254,3.254,0,0,0,2.686-1.2l1.654,1.955A4.624,4.624,0,0,1,68.6-.338,6.48,6.48,0,0,1,65.936.215Zm-.408-9.26q-1.59,0-1.891,2.105h3.652v-.279a1.793,1.793,0,0,0-.44-1.348A1.753,1.753,0,0,0,65.527-9.045ZM77.2-2.578a1.61,1.61,0,0,0,1.182-.414,1.517,1.517,0,0,0,.408-1.155h3.395a4.018,4.018,0,0,1-1.37,3.137A5.1,5.1,0,0,1,77.29.215a5.158,5.158,0,0,1-4-1.59,6.264,6.264,0,0,1-1.461-4.4v-.15a7.08,7.08,0,0,1,.65-3.11,4.732,4.732,0,0,1,1.875-2.073,5.589,5.589,0,0,1,2.9-.725,5.03,5.03,0,0,1,3.6,1.257,4.458,4.458,0,0,1,1.332,3.405H78.794a1.987,1.987,0,0,0-.44-1.386,1.52,1.52,0,0,0-1.182-.483q-1.407,0-1.644,1.794a12.658,12.658,0,0,0-.075,1.568,4.972,4.972,0,0,0,.419,2.428A1.45,1.45,0,0,0,77.2-2.578ZM87.936-14.513v2.89h1.912v2.514H87.936v5.317a1.358,1.358,0,0,0,.236.913,1.268,1.268,0,0,0,.935.258,5.311,5.311,0,0,0,.9-.064V-.1a6.681,6.681,0,0,1-2.041.312,3.792,3.792,0,0,1-2.761-.881,3.61,3.61,0,0,1-.892-2.675V-9.109H82.833v-2.514h1.482v-2.89Zm2.557,8.594a6.86,6.86,0,0,1,.677-3.1,4.84,4.84,0,0,1,1.944-2.089,5.856,5.856,0,0,1,2.976-.73,5.344,5.344,0,0,1,4.114,1.617,6.2,6.2,0,0,1,1.5,4.4v.129A6.019,6.019,0,0,1,100.2-1.38,5.359,5.359,0,0,1,96.11.215a5.42,5.42,0,0,1-3.985-1.488A5.819,5.819,0,0,1,90.5-5.307Zm3.62.226a4.325,4.325,0,0,0,.5,2.363,1.682,1.682,0,0,0,1.493.752q1.934,0,1.977-2.976v-.365q0-3.126-2-3.126-1.815,0-1.966,2.7Z" transform="translate(453.833 3953)" fill="#fe7f05"/>
    <g id="Group_118584" data-name="Group 118584" transform="translate(754.833 8376)">
      <path id="Path_187771" data-name="Path 187771" d="M93.076,34.99a17.5,17.5,0,1,1,17.494-17.5A17.5,17.5,0,0,1,93.076,34.99ZM93.076,3a14.492,14.492,0,1,0,14.486,14.488A14.492,14.492,0,0,0,93.076,3Z" transform="translate(-423.99 -4447.99)" fill="#fe7f05"/>
      <path id="Path_187772" data-name="Path 187772" d="M90.012,31.621a2.256,2.256,0,0,1-1.535-3.915l15.356-14.169a2.256,2.256,0,1,1,3.058,3.319L91.541,31a2.262,2.262,0,0,1-1.529.621Z" transform="translate(-428.6 -4452.892)" fill="#fe7f05"/>
      <path id="Path_187773" data-name="Path 187773" d="M105.362,31.619A2.25,2.25,0,0,1,103.834,31L88.478,16.854a2.258,2.258,0,0,1,3.064-3.319l15.35,14.157a2.256,2.256,0,0,1-1.529,3.915Z" transform="translate(-428.601 -4452.891)" fill="#fe7f05"/>
    </g>
  </g>
</svg>
