<svg xmlns="http://www.w3.org/2000/svg" width="51.177" height="42.748" viewBox="0 0 51.177 42.748">
  <g id="t3-ic11" transform="translate(-1612 8213.136)">
    <path id="Path_187729" data-name="Path 187729" d="M1642.176-8220.918l10.566,17.9,10.638,17.179.431,2.084-.431,1.653-3.378.862-43.486.288-1.725-1.293-.791-2.444,1.294-2.372,21.42-34.861,2.516-.575Z" transform="translate(-1.425 10.083)" fill="#f7a800"/>
    <path id="Path_187731" data-name="Path 187731" d="M2.516,41.545h0L.791,40.252,0,37.808l1.294-2.372L22.713.575,25.229,0l2.947,1.581,5.459,9.247L15.086,41.462Z" transform="translate(1612.575 -8212.417)" fill="#ffc345"/>
    <path id="Path_187730" data-name="Path 187730" d="M1648.811-8210.5,1669.8-8177l-.575,1.294h-40.9l-.575-1.007,20.2-33.207Z" transform="translate(-11.222 1.533)" fill="#ffbd31"/>
    <rect id="Rectangle_38453" data-name="Rectangle 38453" width="4.062" height="17.184" rx="2.031" transform="translate(1635.433 -8201.846)" fill="#a042bf"/>
    <ellipse id="Ellipse_5123" data-name="Ellipse 5123" cx="2.187" cy="2.343" rx="2.187" ry="2.343" transform="translate(1635.433 -8181.849)" fill="#a042bf"/>
    <path id="Path_187725" data-name="Path 187725" d="M25.26,0H25.9a4.456,4.456,0,0,1,3.365,2.02Q30.789,4.5,32.305,6.981a.75.75,0,1,1-1.276.779c-1.007-1.628-2-3.267-3.006-4.894a2.859,2.859,0,0,0-4.9.055Q12.686,19.929,2.257,36.939a4.5,4.5,0,0,0-.707,1.435,2.394,2.394,0,0,0,2.341,2.873h43.4A2.4,2.4,0,0,0,49.3,37.559Q42.1,25.821,34.906,14.087c-.669-1.1-1.35-2.194-2.016-3.3a.8.8,0,0,1,.226-1.064.813.813,0,0,1,1.09.347Q42,22.777,49.785,35.48a7.164,7.164,0,0,1,1.392,3.072v.616a4.078,4.078,0,0,1-1.111,2.4,3.9,3.9,0,0,1-2.782,1.176q-21.7,0-43.392,0a3.877,3.877,0,0,1-2.634-1.034A4.036,4.036,0,0,1,0,39.192v-.679a4.492,4.492,0,0,1,.749-1.985Q11.314,19.306,21.875,2.081A4.443,4.443,0,0,1,25.26,0Z" transform="translate(1612 -8213.136)"/>
    <path id="Path_187726" data-name="Path 187726" d="M59.109,32.429a1.136,1.136,0,0,1,1.448.478l7.754,12.643q6.42,10.468,12.84,20.938a1.375,1.375,0,0,1-.108,1.673,1.457,1.457,0,0,1-1.175.459q-11.034,0-22.067,0-9.258,0-18.516,0a1.473,1.473,0,0,1-1.133-.4,1.357,1.357,0,0,1-.195-1.663q1.249-2.048,2.507-4.09a.748.748,0,1,1,1.313.714c-.792,1.321-1.611,2.627-2.41,3.943q20.2,0,40.41,0-10.1-16.476-20.2-32.949Q51.606,47.154,43.644,60.141a.806.806,0,0,1-1.088.337.975.975,0,0,1-.331-.507c-.084-.4.224-.722.4-1.044Q50.461,46.164,58.285,33.4C58.513,33.044,58.694,32.6,59.109,32.429Z" transform="translate(1578.017 -8242.232)"/>
    <path id="Path_187727" data-name="Path 187727" d="M230.334,105.637a2.665,2.665,0,0,1,4.3,2.126q0,6.552,0,13.1a2.89,2.89,0,0,1-.362,1.594,2.665,2.665,0,0,1-4.972-1.292c0-1.671-.009-3.343,0-5.015a.743.743,0,0,1,1.485.01c.027,1.668-.01,3.337.015,5.006a1.165,1.165,0,1,0,2.328-.1c.006-4.368,0-8.736.005-13.1a1.326,1.326,0,0,0-.384-1.085,1.171,1.171,0,0,0-1.573,0,1.225,1.225,0,0,0-.383.978c-.005,1.6.009,3.2-.005,4.8a.746.746,0,1,1-1.491.011c-.007-1.637,0-3.274,0-4.91A2.666,2.666,0,0,1,230.334,105.637Z" transform="translate(1405.621 -8307.709)"/>
    <path id="Path_187728" data-name="Path 187728" d="M231.263,309.689a2.667,2.667,0,1,1-1.941,3.149,2.68,2.68,0,0,1,1.941-3.149m.2,1.509a1.167,1.167,0,1,0,1.577.745A1.174,1.174,0,0,0,231.468,311.2Z" transform="translate(1405.665 -8491.788)"/>
  </g>
</svg>
