<svg xmlns="http://www.w3.org/2000/svg" width="133.089" height="35" viewBox="0 0 133.089 35">
  <g id="txt-R" transform="translate(-855.833 -3923)">
    <g id="Group_118585" data-name="Group 118585" transform="translate(1279.833 8371)">
      <path id="Path_187769" data-name="Path 187769" d="M17.49,34.99a17.5,17.5,0,1,1,17.5-17.5,17.5,17.5,0,0,1-17.5,17.5ZM17.49,3A14.492,14.492,0,1,0,31.982,17.49,14.492,14.492,0,0,0,17.49,3Z" transform="translate(-423.99 -4447.99)" fill="#62c065"/>
      <path id="Path_187770" data-name="Path 187770" d="M17.343,32.318h-.056a2.243,2.243,0,0,1-1.622-.74l-3.48-3.859a2.257,2.257,0,0,1,3.35-3.026l1.864,2.1L28.318,15.887a2.259,2.259,0,0,1,3.194,3.194L18.94,31.653A2.281,2.281,0,0,1,17.343,32.318Z" transform="translate(-428.386 -4453.757)" fill="#62c065"/>
    </g>
    <path id="Path_188159" data-name="Path 188159" d="M13.836-5.3a5.712,5.712,0,0,1-.881,2.884A5.316,5.316,0,0,1,10.694-.473,7.7,7.7,0,0,1,7.369.215,6.142,6.142,0,0,1,2.514-1.794,8.294,8.294,0,0,1,.741-7.466v-.773a9.467,9.467,0,0,1,.8-4.023,6.064,6.064,0,0,1,2.3-2.664,6.429,6.429,0,0,1,3.48-.94,6.741,6.741,0,0,1,4.576,1.5,5.921,5.921,0,0,1,1.966,4.13h-3.76a2.8,2.8,0,0,0-.72-2.052,2.96,2.96,0,0,0-2.062-.623,2.252,2.252,0,0,0-2.062,1.053A6.766,6.766,0,0,0,4.576-8.5v1.106A7.487,7.487,0,0,0,5.2-3.813,2.3,2.3,0,0,0,7.369-2.739a2.9,2.9,0,0,0,1.987-.612,2.6,2.6,0,0,0,.73-1.944ZM15-5.919a6.86,6.86,0,0,1,.677-3.1,4.84,4.84,0,0,1,1.944-2.089,5.856,5.856,0,0,1,2.976-.73,5.344,5.344,0,0,1,4.114,1.617,6.2,6.2,0,0,1,1.5,4.4v.129A6.019,6.019,0,0,1,24.7-1.38a5.359,5.359,0,0,1-4.087,1.6,5.42,5.42,0,0,1-3.985-1.488,5.819,5.819,0,0,1-1.622-4.034Zm3.62.226a4.325,4.325,0,0,0,.5,2.363,1.682,1.682,0,0,0,1.493.752q1.934,0,1.977-2.976v-.365q0-3.126-2-3.126-1.815,0-1.966,2.7ZM34.837-8.347l-1.192-.086a2.142,2.142,0,0,0-2.191,1.074V0h-3.62V-11.623h3.395l.118,1.493a2.8,2.8,0,0,1,2.546-1.708,3.53,3.53,0,0,1,1.01.129Zm8.336,0L41.98-8.433a2.142,2.142,0,0,0-2.191,1.074V0h-3.62V-11.623h3.395l.118,1.493a2.8,2.8,0,0,1,2.546-1.708,3.53,3.53,0,0,1,1.01.129ZM49.9.215a5.975,5.975,0,0,1-4.329-1.6,5.509,5.509,0,0,1-1.654-4.152v-.3a7.138,7.138,0,0,1,.661-3.147A4.834,4.834,0,0,1,46.5-11.091a5.821,5.821,0,0,1,3.008-.747,5.031,5.031,0,0,1,3.867,1.52A5.973,5.973,0,0,1,54.8-6.08v1.407H47.6a2.609,2.609,0,0,0,.849,1.536,2.525,2.525,0,0,0,1.7.559,3.254,3.254,0,0,0,2.686-1.2l1.654,1.955A4.624,4.624,0,0,1,52.567-.338,6.48,6.48,0,0,1,49.9.215Zm-.408-9.26q-1.59,0-1.891,2.105h3.652v-.279a1.793,1.793,0,0,0-.44-1.348A1.753,1.753,0,0,0,49.489-9.045ZM61.166-2.578a1.61,1.61,0,0,0,1.182-.414,1.517,1.517,0,0,0,.408-1.155H66.15a4.018,4.018,0,0,1-1.37,3.137A5.1,5.1,0,0,1,61.252.215a5.158,5.158,0,0,1-4-1.59,6.264,6.264,0,0,1-1.461-4.4v-.15a7.08,7.08,0,0,1,.65-3.11,4.732,4.732,0,0,1,1.875-2.073,5.589,5.589,0,0,1,2.9-.725,5.03,5.03,0,0,1,3.6,1.257A4.458,4.458,0,0,1,66.15-7.176H62.756a1.987,1.987,0,0,0-.44-1.386,1.52,1.52,0,0,0-1.182-.483q-1.407,0-1.644,1.794a12.659,12.659,0,0,0-.075,1.568,4.972,4.972,0,0,0,.419,2.428A1.45,1.45,0,0,0,61.166-2.578ZM71.9-14.513v2.89H73.81v2.514H71.9v5.317a1.358,1.358,0,0,0,.236.913,1.268,1.268,0,0,0,.935.258,5.311,5.311,0,0,0,.9-.064V-.1A6.681,6.681,0,0,1,71.93.215a3.792,3.792,0,0,1-2.761-.881,3.61,3.61,0,0,1-.892-2.675V-9.109H66.795v-2.514h1.482v-2.89Zm2.557,8.594a6.86,6.86,0,0,1,.677-3.1,4.84,4.84,0,0,1,1.944-2.089,5.856,5.856,0,0,1,2.976-.73,5.344,5.344,0,0,1,4.114,1.617,6.2,6.2,0,0,1,1.5,4.4v.129A6.019,6.019,0,0,1,84.16-1.38a5.359,5.359,0,0,1-4.087,1.6,5.42,5.42,0,0,1-3.985-1.488,5.819,5.819,0,0,1-1.622-4.034Zm3.62.226a4.325,4.325,0,0,0,.5,2.363,1.682,1.682,0,0,0,1.493.752q1.934,0,1.977-2.976v-.365q0-3.126-2-3.126-1.815,0-1.966,2.7Z" transform="translate(903.253 3948)" fill="#62c065"/>
  </g>
</svg>
